<?xml version="1.0" encoding="UTF-8"?>
<svg version="1.1" xmlns="http://www.w3.org/2000/svg" width="528" height="595">
<path d="M0 0 C0.63679688 0.34289062 1.27359375 0.68578125 1.9296875 1.0390625 C7.75155942 5.04968538 10.22692167 11.91406408 13.10546875 18.125 C16.21140769 24.61684984 19.23683038 28.72680184 25.6875 32.125 C26.30383301 32.46337891 26.92016602 32.80175781 27.55517578 33.15039062 C32.26060236 35.70023807 37.05365798 37.95323778 42 40 C37.74214163 36.64604452 33.46063269 33.62829167 28.75 30.9375 C24.27754104 28.31997794 21.3451359 25.6902718 19 21 C18.6875 17.5625 18.6875 17.5625 19 14 C21.86956467 11.14359847 24.07451789 10.56837332 28.0625 10.5625 C42.36792647 11.01844985 54.28635419 19.49122754 63.8984375 29.5 C70.36717332 37.19515042 71.81609415 45.1953759 71 55 C69.15425395 63.57480879 65.73684887 70.84435958 59.08984375 76.67578125 C55.17877699 79.1540086 51.44974261 78.80022619 47 78 C35.63038174 73.62950607 25.39252849 65.40572663 15.38037109 58.60498047 C13.36673562 57.24727385 11.34234533 55.91276714 9.30078125 54.59765625 C-1.8661752 47.377025 -9.65324804 40.80723971 -14.45703125 28.234375 C-14.71331299 27.56801025 -14.96959473 26.90164551 -15.23364258 26.21508789 C-15.73355334 24.89245046 -16.21730978 23.56356048 -16.68237305 22.22827148 C-18.3028636 17.8466067 -20.10742072 15.56371164 -24 13 C-27.76119579 11.44364312 -31.99789691 11.93329828 -36 12 C-36 12.33 -36 12.66 -36 13 C-35.39671875 13.17015625 -34.7934375 13.3403125 -34.171875 13.515625 C-33.37265625 13.75796875 -32.5734375 14.0003125 -31.75 14.25 C-30.96109375 14.48203125 -30.1721875 14.7140625 -29.359375 14.953125 C-25.80716223 16.52927239 -23.6875042 18.24485777 -22.23876953 21.94335938 C-21.50284768 24.32516399 -20.83829135 26.71858547 -20.1875 29.125 C-17.95016427 36.8419432 -15.16386138 42.7549996 -10 49 C-8.25527007 52.48945986 -8.54664687 56.18476843 -9 60 C-10.08364678 63.14210245 -11.4457343 66.06493576 -13 69 C-12.2575 68.38125 -11.515 67.7625 -10.75 67.125 C-6.73067492 64.01915789 -3.99149807 62.69958452 1.125 62.625 C1.99382812 62.59664063 2.86265625 62.56828125 3.7578125 62.5390625 C12.69120176 63.80911061 20.76897767 68.8327231 28.5625 73.125 C29.6131665 73.70048584 30.66383301 74.27597168 31.74633789 74.86889648 C34.83665361 76.56912437 37.92004429 78.28108649 41 80 C41.82081055 80.45745605 42.64162109 80.91491211 43.48730469 81.38623047 C88.13575393 106.45626704 88.13575393 106.45626704 94.375 128.125 C95.75871392 136.70402628 95.07640107 143.2236465 91 151 C88.23610213 154.58864892 85.22223511 157.82130861 82 161 C81.34 161.66 80.68 162.32 80 163 C89.77704237 157.93751009 97.84330843 153.74089101 102 143 C104.29983748 132.63579731 102.37924128 124.26615452 96.7734375 115.40625 C94.45430761 112.25958918 91.77711142 109.67753549 88.953125 106.98828125 C80.17246136 98.04956566 75.22373893 85.20006916 74.6875 72.75 C75.19680851 66.63829787 75.19680851 66.63829787 78 64 C84.49267668 62.50827391 89.89002167 64.29227698 95.5546875 67.453125 C114.5993482 79.50054614 127.10659219 99.9754597 132.4765625 121.61328125 C134.85924475 132.47760107 135.3876153 144.44150306 129.60546875 154.40234375 C127.49861078 157.26660383 125.34241059 159.69460677 122.6875 162.0625 C120.15643109 164.96854208 120.12515282 167.18283888 120 171 C120.29700265 172.40401255 120.6330494 173.80012512 121 175.1875 C124.26518989 188.36008115 118.71170749 200.46669684 112.26953125 211.6875 C110.88540412 214.04488985 110.88540412 214.04488985 110 217 C119.11083486 210.14255668 126.7177778 203.60387992 129 192 C129.41086014 188.27813282 129.63610746 184.5487672 129.875 180.8125 C131.36086796 161.24445301 131.36086796 161.24445301 136.97265625 154.69921875 C139 153 139 153 141.5625 153 C144.64579679 154.26494227 145.25986982 155.13963334 147 158 C148.17129938 161.07632411 149.08986187 164.21292514 150 167.375 C150.26127686 168.26533936 150.52255371 169.15567871 150.79174805 170.07299805 C159.37402611 199.82043237 159.37402611 199.82043237 156.0625 212.625 C151.51892116 220.05994719 144.02244496 224.83143562 137.015625 229.79296875 C134.82230685 231.39818216 132.71131717 233.02169515 130.609375 234.73828125 C113.28318578 248.88436232 113.28318578 248.88436232 103.6875 249.75 C98.66851711 248.72918992 96.18444095 246.97490502 93 243 C84.83309213 230.22769296 81.25206569 214.24378477 77.09179688 199.8125 C75.69508236 195.03158926 74.05893816 190.53695223 72 186 C72.15726563 187.14210937 72.31453125 188.28421875 72.4765625 189.4609375 C73.02003506 193.85320147 73.28748667 198.20159907 73.375 202.625 C73.43107422 203.71167969 73.43107422 203.71167969 73.48828125 204.8203125 C73.55500423 208.91265554 73.13355262 210.77569347 70.9765625 214.3984375 C65.27300937 219.38343276 59.39221704 219.24411938 52.1875 218.8203125 C50.8571875 218.72363281 50.8571875 218.72363281 49.5 218.625 C48.5821875 218.56828125 47.664375 218.5115625 46.71875 218.453125 C44.47821188 218.31309137 42.23904958 218.1618513 40 218 C40.33773437 218.49628906 40.67546875 218.99257812 41.0234375 219.50390625 C46.65925132 228.08793482 47.28074746 235.34386622 47.125 245.4375 C47.11597656 246.55060547 47.10695313 247.66371094 47.09765625 248.81054688 C47.0742224 251.54059023 47.041414 254.2701801 47 257 C49.38704166 249.26507567 50.43268089 242.35974627 50.43945312 234.30078125 C50.53527031 230.47470206 50.76694183 228.39907938 52.73828125 225.0234375 C56.47643323 221.679115 60.13750659 221.7510169 65 222 C72.15384761 223.43580744 77.53229016 227.56649349 81.625 233.5625 C88.49273831 245.21550114 90.95452036 259.36185456 88 272.5625 C85.04657672 282.15422514 78.12039553 289.09328872 71.02734375 295.87109375 C69.08809898 297.90748758 67.76200834 299.81705095 66.375 302.25 C63.49912586 307.25282273 59.51367127 310.16210958 54 312 C48.72859674 312.31834407 43.62745215 312.00370936 38.41015625 311.2109375 C33.76026471 310.80397779 29.05143795 311.09742015 24.390625 311.2578125 C20.78999813 310.98403212 19.39397202 310.67316975 17 308 C15.57842194 302.40323598 17.30279511 296.24912293 18.5 290.75 C21.4436153 276.8309048 21.0671813 262.68908512 13.578125 250.21484375 C9.87401587 245.01625495 5.36629018 240.48005413 0.96875 235.87109375 C0.3603125 235.21238281 -0.248125 234.55367187 -0.875 233.875 C-1.40867187 233.31554687 -1.94234375 232.75609375 -2.4921875 232.1796875 C-6.67765591 226.12919171 -7.50121064 219.96235117 -7.375 212.75 C-7.36194824 211.50319458 -7.36194824 211.50319458 -7.34863281 210.23120117 C-7.11174742 200.22473506 -4.87500809 191.74139381 0 183 C-2.31 180.69 -4.62 178.38 -7 176 C-7.89476493 180.45763328 -8.76635897 184.91901442 -9.6184082 189.38500977 C-9.91020785 190.89790834 -10.20788512 192.40968734 -10.51196289 193.92016602 C-14.8383141 215.46611013 -10.03757221 229.0946088 0.6340332 247.82006836 C12.18250519 268.36567017 13.8292012 289.56367813 7.546875 312.11425781 C2.30975892 330.17295628 -10.97603917 343.66486645 -27.01708984 352.91210938 C-54.36863775 367.9180805 -54.36863775 367.9180805 -65.8125 365.375 C-70.17056824 362.63564282 -72.46822343 358.83098766 -74 354 C-75.29879679 347.35577114 -75.19086776 340.81023056 -75.1875 334.0625 C-75.1882251 333.39527924 -75.1889502 332.72805847 -75.18969727 332.0406189 C-75.18866827 323.41828632 -74.88135397 314.89575539 -74 306.3125 C-71.74342046 283.66128831 -73.3595312 261.42843215 -75.46618652 238.85481262 C-77.3691379 218.34863644 -78.12176874 197.46343576 -76.1875 176.9375 C-76.11748779 176.15963135 -76.04747559 175.3817627 -75.9753418 174.58032227 C-75.24152495 167.86622736 -73.77452783 161.48433896 -69.8125 155.9375 C-66.82366177 153.87852255 -64.76433094 153.19074846 -61.11328125 153.47265625 C-55.75770371 154.80907578 -52.34709498 158.00729268 -49.3046875 162.5078125 C-43.07121336 174.00371707 -40.84484892 187.18315486 -39 200 C-38.39240646 184.54012001 -40.77215282 170.91075666 -45.86425781 156.32910156 C-48.92636584 147.51441134 -50.30616154 139.33792703 -50 130 C-50.45890625 130.62648437 -50.9178125 131.25296875 -51.390625 131.8984375 C-52.00421875 132.71570313 -52.6178125 133.53296875 -53.25 134.375 C-53.85328125 135.18710938 -54.4565625 135.99921875 -55.078125 136.8359375 C-57.54670492 139.61559863 -59.42083549 140.80734777 -63.11328125 141.2578125 C-67.86085852 140.97110268 -70.59169447 140.02729861 -73.9375 136.5625 C-78.42835995 131.4771054 -79.10741857 124.99073752 -78.87182617 118.43139648 C-78.52733569 114.42211359 -78.09901843 110.43300133 -77.625 106.4375 C-76.37985299 95.4304525 -75.45353999 85.02178223 -76.875 74 C-77.00708862 72.95755127 -77.00708862 72.95755127 -77.1418457 71.89404297 C-77.62521062 68.23653906 -78.25430198 64.69273665 -79.1875 61.125 C-80.31138658 56.28860282 -80.45913583 51.7844296 -79 47 C-76.19339875 42.59907291 -72.93349807 38.92526754 -68 37 C-59.13058403 35.48286306 -52.45011449 38.36943394 -45 43 C-42.8303949 44.56941528 -40.95058538 46.15778047 -39 48 C-42.9121512 40.32616496 -47.73795796 35.87143189 -56 33 C-59.43165291 32.19743936 -62.90623292 31.69862251 -66.390625 31.18359375 C-69.28385248 30.70686877 -71.55470381 30.32571765 -73.94921875 28.57421875 C-75.76690061 25.85107456 -75.544782 24.20816069 -75 21 C-69.00818475 9.43932116 -55.13363451 2.83711009 -43.3828125 -1.26171875 C-29.89986887 -5.33155432 -12.67980747 -7.13523216 0 0 Z M-27 86 C-31.54841795 94.6281058 -35.75965347 103.0149896 -34 113 C-30.70857527 121.44365493 -25.8211151 129.03139776 -21 136.66796875 C-17.6399551 142.26585605 -14.82298283 148.11584516 -12 154 C-8.76602742 149.9642927 -8.76602742 149.9642927 -8 145 C-9.12818032 143.22858849 -9.12818032 143.22858849 -10.64453125 141.40234375 C-14.01415853 137.05517278 -16.90439325 132.51445133 -19.75 127.8125 C-20.23082031 127.03197266 -20.71164062 126.25144531 -21.20703125 125.44726562 C-29.15111477 112.40259365 -28.24417158 100.61493558 -26 86 C-26.33 86 -26.66 86 -27 86 Z M2 95 C4.37340677 97.45252033 6.75822344 99.79201583 9.34765625 102.01953125 C19.67018591 110.90967369 26.50038888 121.12859714 28 135 C28.53367187 134.81824219 29.06734375 134.63648438 29.6171875 134.44921875 C32.07414017 133.62031603 34.53604688 132.80785348 37 132 C37.79277344 131.73703125 38.58554687 131.4740625 39.40234375 131.203125 C45.84965045 129.15503406 52.31190728 127.9767833 59 127 C54.86139963 122.86139963 48.83562997 123.72336527 43.2890625 123.4765625 C35.74324071 122.3832249 31.98216991 118.20572905 27.1875 112.75 C20.68413784 105.57163133 14.16074842 98.70792198 5 95 C4.01 95 3.02 95 2 95 Z M33 164 C32.01 165.98 31.02 167.96 30 170 C38.52080037 169.60271115 46.72049367 169.21772491 55 167 C55 166.67 55 166.34 55 166 C52.64655194 165.66076424 50.2924516 165.32849466 47.9375 165 C47.28072266 164.90460938 46.62394531 164.80921875 45.94726562 164.7109375 C41.59861237 164.11112326 37.38670929 163.90872907 33 164 Z M-44 237 C-43 239 -43 239 -43 239 Z M-43 240 C-43.00586624 240.57834595 -43.01173248 241.15669189 -43.01777649 241.75256348 C-43.08245784 247.85405858 -43.16705357 253.95506198 -43.26245117 260.05615234 C-43.29539978 262.32333837 -43.32352177 264.59060051 -43.34643555 266.85791016 C-43.68845146 299.82242271 -43.68845146 299.82242271 -51.125 314.75 C-51.8385308 316.24355551 -52.54956704 317.73830594 -53.2578125 319.234375 C-53.5686377 319.86569336 -53.87946289 320.49701172 -54.19970703 321.14746094 C-55.03270878 323.07571515 -55.54614663 324.95227706 -56 327 C-51.64386666 324.77234512 -49.46045513 322.24467759 -46.6875 318.25 C-40.42335462 309.60868514 -33.52775711 304.40868381 -24.27880859 299.2824707 C-20.29100275 297.01941409 -17.6703102 294.84362831 -15 291 C-15.95261719 290.98582031 -16.90523438 290.97164063 -17.88671875 290.95703125 C-28.13216509 290.56743052 -28.13216509 290.56743052 -32.25 287.875 C-35.41522716 282.67498395 -36.26258694 277.00729675 -37 271.03515625 C-37.165 269.74029297 -37.33 268.44542969 -37.5 267.11132812 C-37.66724277 265.76179002 -37.83390551 264.41217991 -38 263.0625 C-39.39827482 251.417039 -39.39827482 251.417039 -42 240 C-42.33 240 -42.66 240 -43 240 Z M45 260 C46 263 46 263 46 263 Z " fill="#2395CD" transform="translate(351,9)"/>
<path d="M0 0 C7.76822791 6.10360764 10.78431049 15.52592633 12 25 C12.25605195 29.4715787 12.33035773 33.92839374 12.31567383 38.40698242 C12.31246688 40.45868913 12.33622322 42.50901264 12.36132812 44.56054688 C12.36197266 45.85927734 12.36261719 47.15800781 12.36328125 48.49609375 C12.36626221 49.67357178 12.36924316 50.8510498 12.37231445 52.06420898 C12 55 12 55 10.67260742 56.85180664 C7.32446677 59.15020183 3.80453858 59.25026447 -0.140625 58.703125 C-7.13495494 56.89340327 -11.78680048 52.75135172 -16 47 C-18.44385336 42.63265749 -20.48097032 38.0889255 -22.46875 33.5 C-23.6442467 30.23428685 -23.6442467 30.23428685 -25 29 C-25.11214844 30.03447266 -25.11214844 30.03447266 -25.2265625 31.08984375 C-26.22489804 38.22500656 -27.93732653 43.72927145 -33 49 C-35.8529869 51.08774282 -38.74201373 52.92339991 -41.8046875 54.6875 C-42.52914062 55.120625 -43.25359375 55.55375 -44 56 C-44 56.33 -44 56.66 -44 57 C-38.79823032 55.68889822 -34.1691985 54.32886305 -29.6875 51.3125 C-27.36643529 49.77602054 -26.00541141 49.00122987 -23.25 48.375 C-21 49 -21 49 -18.6875 50.875 C-15.95327306 55.93838323 -16.06008816 60.84759904 -17.6953125 66.33203125 C-18.6632651 68.65430408 -19.7665173 70.80757151 -21 73 C-21.40089844 73.74121094 -21.80179688 74.48242188 -22.21484375 75.24609375 C-30.97520659 89.89748319 -52.39407555 102.24524934 -68.6328125 106.7265625 C-72.50627223 107.37853097 -74.31085057 107.40722466 -77.75 105.375 C-78.4925 104.59125 -79.235 103.8075 -80 103 C-82.91947504 100.00931825 -85.21090048 97.74635031 -89 96 C-88.52949219 96.64066406 -88.05898438 97.28132813 -87.57421875 97.94140625 C-79.58591909 109.03902337 -76.89495079 118.18688484 -78 132 C-80.10489204 139.91622443 -84.66926323 145.70762898 -91.5 150.0625 C-102.04199062 156.0284858 -114.75929996 161 -127 161 C-127 162.65 -127 164.3 -127 166 C-126.05640625 165.94199219 -125.1128125 165.88398438 -124.140625 165.82421875 C-114.88499374 165.49897066 -108.37572433 166.67704551 -100 171 C-99.31550781 171.33 -98.63101563 171.66 -97.92578125 172 C-96.60429094 172.64072257 -95.29883036 173.3145062 -94 174 C-94.16048828 173.11248047 -94.16048828 173.11248047 -94.32421875 172.20703125 C-94.86748418 168.62615266 -95.2824232 165.84726959 -94.125 162.375 C-92.11401825 160.12743217 -90.14402905 158.50549135 -87.75 156.6875 C-79.20423426 150.19161 -75.19185232 143.7693087 -71.45703125 133.82421875 C-65.10283025 116.91500742 -56.28416935 109.7665068 -41.02978516 101.14892578 C-28.83880312 94.24842524 -21.71700692 88.64982101 -17.23828125 75.05078125 C-15.64934376 71.13608036 -13.60870746 68.12609522 -10.125 65.6875 C-7.11272867 64.71294163 -5.1512692 64.48550707 -2 65 C4.48254598 70.55646799 6.70849532 79.79149432 8 88 C8.62418936 98.61121909 8.77449967 108.12343363 1.51879883 116.53930664 C-1.14892223 119.10496732 -4.24098112 120.61607139 -7.5625 122.1875 C-8.26487793 122.52700684 -8.96725586 122.86651367 -9.69091797 123.21630859 C-16.6270354 126.46451083 -23.72891395 129.53388576 -31.5 128.5625 C-34.67799527 126.57625296 -36.00991538 124.13269676 -38 121 C-37.9278125 122.04414063 -37.855625 123.08828125 -37.78125 124.1640625 C-34.7410093 170.85462627 -34.7410093 170.85462627 -51.375 190.4375 C-55.79509886 195.08673442 -59.8367717 198.53818494 -66.359375 199.26171875 C-70.09854319 199.34114553 -73.39178481 198.99957313 -77 198 C-73.12669703 202.08267069 -71.0957786 203.74262368 -65.4375 204.4375 C-58.59828276 204.29971357 -53.40118596 200.25038684 -48.57421875 195.7265625 C-43.49905402 190.31873992 -39.35304651 184.6140887 -36 178 C-35.5978125 177.21753906 -35.195625 176.43507813 -34.78125 175.62890625 C-31.74633106 168.68110967 -31.46899658 161.82103339 -31.3269043 154.34423828 C-31.1828831 147.67191384 -30.76938963 141.06240513 -27.375 135.1875 C-20.30003988 128.67108937 -10.41927432 126.51612136 -1.0625 125.625 C2.5603471 126.06861393 4.25991749 126.5643711 7 129 C12.30952583 139.43596456 10.20409356 151.12190459 7 162 C5.59375 163.9140625 5.59375 163.9140625 4 165 C-1.93033867 165.81396805 -6.14719639 164.2352024 -11 161 C-13.17661584 159.10528133 -15.05280529 157.14191419 -17 155 C-14.31328428 159.25136919 -11.45973301 162.75182818 -7.9375 166.375 C-1.56835694 173.33509448 0.6647449 178.57012866 0.33984375 188.03125 C-1.67083207 205.59577445 -12.66891534 225.49798237 -26 237 C-28.79870027 238.39935013 -30.90498792 238.25265405 -34 238 C-36.15019528 236.41282344 -36.90107162 235.4922345 -37.43139648 232.85351562 C-37.43734899 226.22375251 -35.9367715 221.42542124 -33.0625 215.5 C-29.9055228 208.92432728 -28.2999984 203.32343351 -28 196 C-28.20753906 196.71542969 -28.41507813 197.43085938 -28.62890625 198.16796875 C-33.72025563 214.63496905 -42.23772769 229.29957578 -57.61328125 237.9140625 C-62.7164901 240.23598077 -67.27842626 241.28235263 -72.875 241.625 C-74.60363281 241.73714844 -74.60363281 241.73714844 -76.3671875 241.8515625 C-77.23601562 241.90054688 -78.10484375 241.94953125 -79 242 C-78.57847656 242.60585938 -78.15695312 243.21171875 -77.72265625 243.8359375 C-73.33491072 250.54660713 -70.8438102 256.31229214 -72.484375 264.3828125 C-73.99047748 269.31948175 -76.298143 273.6211283 -79 278 C-72.31832398 273.10010425 -70.55133194 268.20162034 -68.5 260.375 C-66.05804683 251.31374231 -66.05804683 251.31374231 -62.20703125 248.85546875 C-56.48906908 245.81947758 -51.34920249 244.84735643 -44.875 244.75 C-43.32425781 244.71132813 -43.32425781 244.71132813 -41.7421875 244.671875 C-39 245 -39 245 -37.1640625 246.26171875 C-34.90311576 249.63796472 -35.39065841 253.11469325 -36 257 C-38.7843706 266.01605719 -45.55058582 272.44864566 -52 279 C-52.80308594 279.83015625 -53.60617187 280.6603125 -54.43359375 281.515625 C-58.45330998 285.6119736 -62.60442876 289.46423788 -66.9765625 293.1796875 C-69.24205692 295.21775777 -71.28749257 297.40564999 -73.375 299.625 C-78.7018436 304.99776467 -84.21004403 308.4315066 -91.75 309.5625 C-97.08502546 308.63913021 -100.38733019 306.04208009 -103.6875 301.875 C-107.73808603 295.78605455 -109.8928613 288.27044201 -109 281 C-107.22864643 274.30450632 -104.20291249 268.39632904 -100.875 262.375 C-97.92697273 257.00758035 -95.51925879 252.16187095 -95 246 C-94.93167969 245.24976563 -94.86335937 244.49953125 -94.79296875 243.7265625 C-94.22450074 230.71496144 -98.92946032 218.71639267 -104 207 C-104.03738281 207.61488281 -104.07476562 208.22976563 -104.11328125 208.86328125 C-104.21189453 210.07564453 -104.21189453 210.07564453 -104.3125 211.3125 C-104.37050781 212.11300781 -104.42851562 212.91351563 -104.48828125 213.73828125 C-105.09064532 216.40063848 -105.89641191 217.31193548 -108 219 C-113.82269929 221.91134965 -121.55165623 220.08772503 -127.5 218.375 C-140.60203309 213.90453062 -149.38485519 206.61514481 -159 197 C-155.93831724 205.31442758 -150.45844208 210.97200363 -143.5625 216.3125 C-143.03744873 216.72072998 -142.51239746 217.12895996 -141.97143555 217.54956055 C-134.07314447 223.44512689 -126.51612094 225.78735682 -116.890625 227.421875 C-110.65637529 228.5845325 -105.91085638 230.26110586 -102.125 235.6875 C-99.28174673 244.05930131 -101.28246446 251.29996835 -105.01904297 259.15966797 C-108.04226182 264.83140109 -111.96709792 269.99467922 -115.71337891 275.20166016 C-120.82404804 282.34495974 -124.98817966 289.83163154 -129 297.625 C-135.12798873 309.47198533 -141.88963189 320.3870927 -155 325 C-167.39661806 328.68548104 -181.75328791 324.48812064 -192.875 318.75 C-198.72910181 315.37571026 -203.8569862 311.35688094 -209 307 C-210.32592834 305.99020209 -211.65686365 304.98679406 -213 304 C-203.86805954 316.67758215 -189.47751839 326.9611019 -173.9375 330.4375 C-168.44912033 331.25093958 -162.86007573 331.42874432 -157.3203125 331.65625 C-154.27464876 331.97156578 -152.43980938 332.17906909 -150 334 C-149.25 337.625 -149.25 337.625 -149 341 C-150.24735567 341.6509259 -151.49801832 342.29551669 -152.75 342.9375 C-153.44609375 343.29714844 -154.1421875 343.65679688 -154.859375 344.02734375 C-168.30838136 350.13829737 -189.51921401 346.97799666 -203 342 C-218.0470526 335.94535265 -228.44401821 326.61983664 -234.875 311.6875 C-237.61189994 304.89962565 -238.20488403 298.93425246 -238.25 291.6875 C-238.270625 290.87087891 -238.29125 290.05425781 -238.3125 289.21289062 C-238.35643363 282.32080173 -236.93772066 277.11419392 -233.25 271.1875 C-227.90431245 265.99030377 -221.92758555 265.5106538 -214.76513672 265.58325195 C-202.1728788 265.96332576 -184.97334648 267.72125148 -175.859375 277.234375 C-173.71062355 280.43041707 -173.01007861 283.05011088 -172.25 286.8125 C-172.00765625 287.97394531 -171.7653125 289.13539063 -171.515625 290.33203125 C-171.34546875 291.21246094 -171.1753125 292.09289062 -171 293 C-170.90203125 292.19175781 -170.8040625 291.38351562 -170.703125 290.55078125 C-169.15689097 279.50053976 -169.15689097 279.50053976 -165 276 C-161.62574137 274.00043933 -158.05450613 272.46378742 -154.46875 270.88671875 C-147.65878278 267.73813451 -142.7430046 264.53313743 -139.97265625 257.328125 C-139.22764944 254.89741154 -138.56825088 252.47737445 -138 250 C-138.32871094 250.56847656 -138.65742188 251.13695312 -138.99609375 251.72265625 C-143.34401474 258.78066349 -148.75431976 265.07220527 -157 267.4375 C-168.73082597 269.51579594 -179.97222713 267.03913013 -189.94140625 260.53125 C-195.71363714 256.23767408 -198.08754766 250.5248661 -199.4765625 243.63671875 C-201.30714729 229.60933066 -197.72470334 215.43424554 -194 202 C-201.69488102 212.55297968 -204.01666237 225.08148422 -205.90673828 237.74365234 C-206.75247044 243.15467285 -207.8195047 248.41634501 -211 253 C-215.30031212 255.86687474 -218.95701888 255.69481073 -224 255 C-228.02072021 253.65062712 -230.94903073 251.69237586 -233.21032715 248.05101013 C-236.54123043 240.32624502 -236.58476799 232.79621888 -236.53125 224.53515625 C-236.53395198 223.05122118 -236.53784024 221.56728785 -236.54284668 220.08335876 C-236.54871051 216.98777246 -236.54028203 213.89265096 -236.52148438 210.79711914 C-236.49871604 206.85890892 -236.51182329 202.92179077 -236.53577423 198.98362064 C-236.55033468 195.9232127 -236.54557951 192.8630571 -236.53526306 189.80264091 C-236.53262289 188.35199283 -236.53576842 186.90132071 -236.54518127 185.45070076 C-236.6164851 171.37623659 -233.56866668 160.60908183 -224 150 C-205.51202449 132.79474978 -178.20402452 124.94024044 -153.51367188 125.81640625 C-144.93946103 126.44265009 -137.94024719 130.19521349 -131 135 C-135.2350103 128.96831867 -140.15419347 125.82248302 -146.52954102 122.37329102 C-151.091269 119.83291357 -153.94899748 117.26681555 -157 113 C-157.74062776 109.83549958 -157.61941271 108.14293308 -156.06640625 105.27734375 C-149.12831878 95.90989627 -136.44392232 92.98243567 -125.75 90.125 C-101.43667286 83.25038021 -82.9122215 72.30936023 -70.05175781 49.90527344 C-68.50072243 47.09555195 -67.05044547 44.2367705 -65.59155273 41.37841797 C-59.10396208 28.71066639 -59.10396208 28.71066639 -53 24 C-52.32453125 23.47019531 -51.6490625 22.94039063 -50.953125 22.39453125 C-49.45444142 21.2333172 -47.94755911 20.08262466 -46.43359375 18.94140625 C-43.74959415 16.80023803 -41.30135255 14.48959266 -38.8125 12.125 C-34.63112809 8.26845218 -30.33145772 5.00650188 -25.5625 1.9375 C-24.97122314 1.5554541 -24.37994629 1.1734082 -23.77075195 0.77978516 C-15.88676405 -4.14643677 -8.22407539 -4.49996578 0 0 Z M-19 152 C-18 154 -18 154 -18 154 Z M-175 179 C-174.01 179.495 -174.01 179.495 -173 180 C-170.96855359 179.06553465 -168.96466413 178.06775224 -167 177 C-167.33 176.01 -167.66 175.02 -168 174 C-170.40755746 174 -173.24568759 177.50696816 -175 179 Z M-106 204 C-105 206 -105 206 -105 206 Z " fill="#1D6BA2" transform="translate(513,244)"/>
<path d="M0 0 C7.26988495 3.86762016 13.62848582 9.79681799 16.74609375 17.4609375 C20.17565489 31.13930345 20.75162106 49.63108315 13.37109375 62.2734375 C9.86720781 67.48159449 4.17445457 69.16020809 -1.56640625 70.9609375 C-5.69967601 72.28700529 -9.79622291 73.62952532 -13.81640625 75.2734375 C-19.51108819 77.24069126 -19.51108819 77.24069126 -23.25390625 76.4609375 C-26.14617903 74.34694903 -28.71658614 71.98537782 -31.25390625 69.4609375 C-31.33475146 71.4811488 -31.33475146 71.4811488 -30.75390625 73.4609375 C-28.58885782 86.45122805 -32.97679626 96.79997136 -40.25390625 107.4609375 C-46.98475312 116.5665508 -55.36055331 121.16262893 -66.25390625 123.4609375 C-67.45402344 123.63367188 -68.65414062 123.80640625 -69.890625 123.984375 C-73.23184395 125.06463061 -73.23184395 125.06463061 -74.24169922 127.10693359 C-75.06687571 129.45197004 -75.70350372 131.80158881 -76.31640625 134.2109375 C-79.5437203 145.31892504 -84.23441807 155.4359884 -89.27954102 165.80175781 C-94.19919076 175.96052489 -98.51740057 186.01206804 -99.62890625 197.3359375 C-99.74504272 198.48292114 -99.74504272 198.48292114 -99.86352539 199.65307617 C-101.02276811 213.30369261 -98.29540786 227.74542058 -89.50390625 238.5859375 C-83.16262416 245.05760109 -76.38941881 245.5493632 -67.7109375 246.15625 C-64.60650908 246.54121887 -62.64703526 247.45379704 -60.25390625 249.4609375 C-57.89770188 252.99524406 -57.76399012 254.29665037 -58.25390625 258.4609375 C-62.09684967 265.40779676 -67.57918993 271.16319198 -73.73828125 276.1015625 C-77.09590897 279.11304303 -77.86842626 282.35008704 -78.87890625 286.5859375 C-79.13929688 287.66101563 -79.3996875 288.73609375 -79.66796875 289.84375 C-80.29031831 292.17658209 -80.29031831 292.17658209 -80.25390625 293.4609375 C-79.70476562 292.49607422 -79.70476562 292.49607422 -79.14453125 291.51171875 C-75.56992228 285.54552616 -71.6668955 280.42399808 -66.94140625 275.3359375 C-66.41385742 274.76786377 -65.88630859 274.19979004 -65.34277344 273.61450195 C-62.18395121 270.28001989 -60.58350622 268.66549134 -56.00390625 267.9609375 C-52.03371475 268.49029637 -51.59663269 268.64798508 -49.12890625 271.4609375 C-46.68117574 274.66181586 -44.58212809 278.04644328 -42.625 281.56640625 C-38.62773553 287.08969191 -32.12490934 289.83824455 -26.25390625 292.9609375 C-18.29780311 297.19266192 -12.09106185 300.57816541 -7.25390625 308.4609375 C-10.46474376 295.9386712 -20.01273692 288.118274 -30.44140625 281.3984375 C-38.76552863 275.97610842 -43.81194855 270.19850594 -45.921875 260.33984375 C-46.15519531 259.20417969 -46.38851562 258.06851562 -46.62890625 256.8984375 C-47.88664478 251.31561851 -48.75284543 248.08135598 -53.25390625 244.4609375 C-58.39514276 242.3342853 -63.83136532 242.38334289 -69.31640625 242.1484375 C-76.98750621 241.67675174 -81.03204665 239.5038049 -86.50390625 234.3359375 C-95.90187625 218.89641535 -95.69896597 199.561888 -91.62890625 182.4609375 C-89.98615775 176.01045402 -87.48683363 170.07762708 -84.68334961 164.05444336 C-82.99369702 160.3747047 -81.79160365 157.02681602 -81.19140625 153.0234375 C-80.32901841 147.69639597 -78.19725745 143.19368615 -74.25390625 139.4609375 C-72.11063524 138.38392935 -69.92771402 137.46589598 -67.71264648 136.54589844 C-63.61313861 134.73692088 -59.86915294 132.38029755 -56.06640625 130.0234375 C-55.29876953 129.55873047 -54.53113281 129.09402344 -53.74023438 128.61523438 C-46.64537503 124.25618197 -41.16821592 120.07144508 -36.75390625 112.8359375 C-36.3686377 112.22274658 -35.98336914 111.60955566 -35.58642578 110.9777832 C-33.28502521 107.27467293 -31.16368568 103.50581348 -29.12890625 99.6484375 C-23.45810713 89.08366106 -16.77294601 81.40249681 -5.12890625 77.5859375 C0.24284524 76.1889495 4.60734937 75.70608654 9.93359375 77.5859375 C13.83523308 80.18703038 16.15936933 83.15735503 17.328125 87.74609375 C19.98029097 104.97277923 15.31649796 122.67977698 11.67578125 139.4453125 C8.59661426 154.01959811 11.25581921 167.04759588 14.33618164 181.4230957 C16.5033569 191.59182809 16.95922633 201.52287721 16.98632812 211.8972168 C16.99599869 214.1265242 17.02709064 216.35489346 17.05859375 218.58398438 C17.14822176 230.59422129 16.52561754 242.45620097 9.5390625 252.69140625 C4.51720278 257.64762075 -0.96236923 257.96236988 -7.62890625 258.1484375 C-8.46035156 258.18259766 -9.29179687 258.21675781 -10.1484375 258.25195312 C-12.18313976 258.33380896 -14.21849833 258.39906451 -16.25390625 258.4609375 C-9.26228025 263.43574831 -2.73146035 264.41938462 5.64941406 265.12036133 C10.19577212 265.60921235 12.21375711 265.98393585 15.71484375 269.12109375 C17.81952098 272.58166882 18.98333011 275.54720681 19.99609375 279.4609375 C20.310625 280.6365625 20.62515625 281.8121875 20.94921875 283.0234375 C22.31109691 288.89820605 22.89542638 294.44682368 22.87890625 300.47265625 C22.88036148 301.23487488 22.88181671 301.99709351 22.88331604 302.78240967 C22.88554754 305.23780372 22.87932414 307.69305749 22.87109375 310.1484375 C22.86921051 310.98085968 22.86732727 311.81328186 22.86538696 312.67092896 C22.81408037 331.89140083 22.81408037 331.89140083 22.43359375 340.8984375 C22.41119629 341.6102417 22.38879883 342.3220459 22.36572266 343.05541992 C22.12253333 347.48179573 21.08091604 350.695274 18.74609375 354.4609375 C15.7386864 356.46587573 14.97249715 356.77551443 11.55859375 356.8359375 C10.84316406 356.86429687 10.12773437 356.89265625 9.390625 356.921875 C5.43472404 356.23236789 2.26031617 354.34918798 -1.25390625 352.4609375 C-2.82882714 351.64727521 -4.40436703 350.83481011 -5.98046875 350.0234375 C-7.61374395 349.17015591 -9.24655226 348.31598007 -10.87890625 347.4609375 C-11.69875 347.03554688 -12.51859375 346.61015625 -13.36328125 346.171875 C-28.15897607 338.41721823 -28.15897607 338.41721823 -31.25390625 332.4609375 C-32.23410372 328.4893602 -32.81329063 324.52512337 -33.25390625 320.4609375 C-33.95515625 321.5540625 -34.65640625 322.6471875 -35.37890625 323.7734375 C-37.71710697 327.41827981 -40.24192013 328.86477098 -44.25390625 330.4609375 C-65.26885336 333.34298739 -90.58499401 323.98230937 -107.25390625 311.4609375 C-121.73917454 300.09692581 -131.91995035 284.37462187 -136.25390625 266.4609375 C-135.24070312 266.27917969 -134.2275 266.09742188 -133.18359375 265.91015625 C-131.83194272 265.65672168 -130.48038506 265.40278885 -129.12890625 265.1484375 C-128.46375 265.03048828 -127.79859375 264.91253906 -127.11328125 264.79101562 C-122.73448471 263.95389276 -119.14477338 262.62455053 -115.25390625 260.4609375 C-116.53523438 260.32558594 -117.8165625 260.19023437 -119.13671875 260.05078125 C-133.31394372 258.36589585 -146.30617513 255.67634265 -155.6484375 243.82421875 C-165.92464212 228.69744553 -167.14441315 210.96834508 -168.81640625 193.2734375 C-170.32355127 175.65315418 -170.32355127 175.65315418 -174.25390625 158.4609375 C-174.21265625 159.4715625 -174.17140625 160.4821875 -174.12890625 161.5234375 C-174.27459969 166.11278076 -174.42645016 170.37548761 -177.58203125 173.9765625 C-182.75881767 178.52585965 -186.86611058 178.61476767 -193.56640625 178.6484375 C-194.84128906 178.66261719 -196.11617187 178.67679688 -197.4296875 178.69140625 C-202.46926572 178.38769316 -206.70874126 177.76212907 -210.62890625 174.4609375 C-213.15144625 171.35627289 -213.65916395 169.0701052 -213.59375 165.05078125 C-211.76493219 151.11392832 -203.57728946 135.91698728 -193.25390625 126.4609375 C-188.8571872 123.49988181 -185.52443615 122.8859706 -180.25390625 123.4609375 C-176.62799133 124.91130347 -174.67854328 127.08178227 -172.25390625 130.0234375 C-169.18121293 133.67853675 -165.75070289 136.55124587 -161.94140625 139.3984375 C-140.78928703 155.25114502 -140.78928703 155.25114502 -137.25390625 167.4609375 C-136.99113957 169.86274688 -136.80914202 172.27422983 -136.69140625 174.6875 C-136.63617798 175.69265152 -136.63617798 175.69265152 -136.57983398 176.71810913 C-136.423829 179.559528 -136.28703059 182.40178065 -136.14941406 185.24414062 C-136.04560357 187.32987429 -135.93130323 189.41485235 -135.81640625 191.5 C-135.75582031 192.73959473 -135.69523437 193.97918945 -135.6328125 195.25634766 C-135.28527024 198.19567734 -134.78892222 199.97119752 -133.25390625 202.4609375 C-133.3003125 201.58695313 -133.34671875 200.71296875 -133.39453125 199.8125 C-133.60402242 192.67483671 -133.25424969 186.02782124 -131.6796875 179.05078125 C-131.41823692 177.89020958 -131.41823692 177.89020958 -131.15150452 176.70619202 C-129.04816673 167.91394568 -125.69796923 159.70811327 -122.19140625 151.3984375 C-121.51765232 149.77364863 -120.84481356 148.14847999 -120.17285156 146.52294922 C-118.22380142 141.8253646 -116.24458194 137.14101166 -114.25390625 132.4609375 C-113.98177307 131.8197699 -113.70963989 131.17860229 -113.42926025 130.51800537 C-110.14276372 122.78374015 -106.75047483 115.10241036 -103.25390625 107.4609375 C-102.81127441 106.4905957 -102.36864258 105.52025391 -101.91259766 104.52050781 C-75.52423365 47.037333 -75.52423365 47.037333 -50.25390625 34.4609375 C-49.17753906 33.92339844 -48.10117188 33.38585938 -46.9921875 32.83203125 C-42.67968954 31.25033137 -39.17810295 30.92373327 -34.62890625 30.9609375 C-33.84346436 30.96448242 -33.05802246 30.96802734 -32.2487793 30.97167969 C-22.20838116 31.25390292 -13.66091307 35.18211926 -5.25390625 40.4609375 C-10.95845741 35.04449498 -16.83301313 30.61013514 -23.5546875 26.515625 C-26.66943866 24.14462773 -28.3556657 21.8715613 -30.25390625 18.4609375 C-30.90385695 12.61138122 -30.20936906 8.68225513 -27.25390625 3.4609375 C-19.58788893 -4.64493327 -9.76202819 -3.90481128 0 0 Z M-22.25390625 148.4609375 C-31.46873713 156.93858191 -39.34599193 166.62127889 -40.53662109 179.52490234 C-40.70685473 184.06065323 -40.7456143 188.5923984 -40.78125 193.13085938 C-40.9230922 200.33560869 -41.3446152 205.11957352 -46.2265625 210.7265625 C-46.91621094 211.38140625 -47.60585937 212.03625 -48.31640625 212.7109375 C-49.00863281 213.37609375 -49.70085937 214.04125 -50.4140625 214.7265625 C-51.32478516 215.58507812 -51.32478516 215.58507812 -52.25390625 216.4609375 C-53.24390625 217.4509375 -53.24390625 217.4509375 -54.25390625 218.4609375 C-52.8786749 218.31730223 -51.50373223 218.17090233 -50.12890625 218.0234375 C-49.36320313 217.94222656 -48.5975 217.86101562 -47.80859375 217.77734375 C-46.00805867 217.5543417 -44.21447763 217.2711663 -42.4296875 216.9453125 C-32.56398929 215.44058116 -23.44464986 215.57777911 -14.29296875 219.68359375 C-13.62007812 219.94011719 -12.9471875 220.19664062 -12.25390625 220.4609375 C-11.59390625 220.1309375 -10.93390625 219.8009375 -10.25390625 219.4609375 C-13.24408767 216.78306392 -16.2443428 214.11701226 -19.25390625 211.4609375 C-20.17623047 210.64689453 -20.17623047 210.64689453 -21.1171875 209.81640625 C-23.80056437 207.24548246 -23.80056437 207.24548246 -27.25390625 206.4609375 C-27.92057292 205.12760417 -28.58723958 203.79427083 -29.25390625 202.4609375 C-29.76953125 201.6565625 -30.28515625 200.8521875 -30.81640625 200.0234375 C-35.73732961 187.82810569 -32.54915969 174.77473241 -27.81640625 163.0234375 C-26.34279224 159.66861413 -24.75392809 156.48260044 -22.87890625 153.3359375 C-22.34265625 152.3871875 -21.80640625 151.4384375 -21.25390625 150.4609375 C-21.74890625 149.4709375 -21.74890625 149.4709375 -22.25390625 148.4609375 Z M-6.25390625 309.4609375 C-5.25390625 311.4609375 -5.25390625 311.4609375 -5.25390625 311.4609375 Z " fill="#F1811E" transform="translate(242.25390625,13.5390625)"/>
<path d="M0 0 C4.79571932 4.92192246 6.20124941 9.64756 6.4921875 16.41015625 C6.55792969 17.64830078 6.62367187 18.88644531 6.69140625 20.16210938 C6.81250096 22.7347278 6.92722645 25.30765502 7.03515625 27.88085938 C7.91964509 44.02695291 12.90480098 56.29347595 24.5 67.5 C31.4754825 74.25049835 35.65758064 81.04570151 39.6953125 89.84204102 C46.76968391 105.22845068 54.81523246 119.1048862 67 131 C67.55558594 131.5878125 68.11117187 132.175625 68.68359375 132.78125 C77.0749217 140.97641703 89.86073491 145.35882302 100.94702148 148.45336914 C105.82108022 149.82108022 105.82108022 149.82108022 108 152 C107.75874124 159.47902155 105.54387126 166.00731202 103 173 C103.33 173.33 103.66 173.66 104 174 C104.4846875 173.34773437 104.969375 172.69546875 105.46875 172.0234375 C111.27803675 164.44902132 116.60769733 158.60832316 126 156 C143.65403852 153.79614499 158.98765948 163.81675796 172.52758789 174.04858398 C182.40240843 181.73260178 191.27924746 189.69065752 197 201 C197.33902344 201.59683594 197.67804688 202.19367188 198.02734375 202.80859375 C201.99819786 211.02478497 201.26373815 223.33811994 198.5 231.875 C193.95075123 242.23978327 187.15024996 249.21661862 178.19213867 255.85327148 C174.5545544 258.57339332 172.04539714 260.81796124 170 265 C170.845625 264.566875 171.69125 264.13375 172.5625 263.6875 C184.8121547 257.67403315 184.8121547 257.67403315 191 259 C196.34620745 263.41643224 197.07862219 268.3452227 198 275 C198.28018843 278.92197086 198.3253459 282.81915321 198.3125 286.75 C198.32861328 287.75160156 198.34472656 288.75320313 198.36132812 289.78515625 C198.3657782 296.5047636 197.50234399 300.89364195 193.1875 306.25 C188.03249103 310.37400717 182.18001609 310.35645928 175.875 310.3125 C175.03259766 310.30686035 174.19019531 310.3012207 173.32226562 310.29541016 C159.71950951 310.03221507 148.06297284 306.1025723 138.0625 296.625 C130.75290239 288.88388769 128.62540026 281.19987181 128.72265625 270.70703125 C129.41144749 261.50051168 133.59761569 254.29321882 139 247 C133.25905171 250.13827348 130.91934618 253.87235769 127.875 259.5625 C122.76455043 268.98439696 122.76455043 268.98439696 119 271 C114.87164244 271.71797523 113.41047581 271.28481995 109.9375 268.875 C107.88444927 266.99838332 106.15453581 264.99635492 104.4375 262.8125 C101.8175379 259.7894668 100.78265824 259.03257749 97 258 C94.25437075 258.12584134 91.70505327 258.35725179 89 258.75 C87.98099609 258.88148438 87.98099609 258.88148438 86.94140625 259.015625 C83.62102179 259.4542813 80.31706895 259.94557714 77.01586914 260.51220703 C69.11225912 261.83933024 61.44755393 262.36581942 53.4375 262.375 C52.30892578 262.39949219 51.18035156 262.42398437 50.01757812 262.44921875 C38.59492236 262.48862987 29.36047893 259.48033157 20 253 C23.26164549 259.33731996 27.171204 264.4993636 32.0625 269.625 C38.80233782 276.70419493 44.25734862 283.31613757 45.375 293.375 C44.76876841 299.23523872 42.69259534 303.42830433 38.375 307.4375 C32.67136307 311.18989272 26.66267247 310.49482191 20 310 C16.08890344 309.10413364 12.61989924 307.71610038 9 306 C8.11957031 305.5875 7.23914063 305.175 6.33203125 304.75 C-9.4141822 296.75192333 -24.81864831 284.22261293 -30.9375 267.1875 C-31.95628046 263.73358576 -32.27817079 260.61622033 -32 257 C-17.09518262 260.67745027 -9.33229354 264.85731019 -1 278 C-1.83469301 275.14326606 -1.83469301 275.14326606 -3 273.3125 C-4.02975325 270.9311956 -4.08929449 269.49084321 -4.1875 266.9375 C-4.34997266 264.8450375 -4.34997266 264.8450375 -5 263 C-7.50499359 261.50766339 -9.26400203 260.79239286 -12 260 C-28.92951836 254.28017971 -38.56827123 243.36358578 -46.38745117 227.796875 C-49.60977529 221.12164604 -52.35486173 214.26890674 -50.4375 206.8125 C-48.14357653 203.92016172 -45.49119633 202.83353822 -42 202 C-31.63792405 200.96098425 -25.57718654 202.79366044 -17.625 209.25 C-14.98612457 211.46220943 -12.36158467 213.68926317 -9.75 215.93359375 C3.87592969 227.17999528 19.94114723 230.97484442 37.24609375 229.32421875 C38.15488281 229.21722656 39.06367187 229.11023438 40 229 C38.70707031 228.76925781 37.41414063 228.53851563 36.08203125 228.30078125 C14.77257334 224.36713831 -1.4013566 217.17932503 -17 202 C-17.65742187 201.39285156 -18.31484375 200.78570312 -18.9921875 200.16015625 C-24.32482973 195.11359998 -29.53322239 189.01212028 -30.23828125 181.44140625 C-30.43532714 173.79809976 -30.43532714 173.79809976 -28.5 170.25 C-24.09964479 168.0498224 -20.05694024 169.36095061 -15.5859375 170.75 C-14.0436804 171.27245843 -12.50767892 171.81397364 -10.98046875 172.37890625 C-8.86884021 173.14961964 -8.86884021 173.14961964 -6 173 C-7.34191406 172.27296875 -7.34191406 172.27296875 -8.7109375 171.53125 C-20.46118607 165.06510794 -29.80098979 158.63283768 -37 147 C-37 149.98894172 -36.48979263 151.69593809 -35.5625 154.5 C-34.05839936 159.87178801 -33.51153777 165.08119518 -33.1875 170.625 C-33.134729 171.41197266 -33.08195801 172.19894531 -33.02758789 173.00976562 C-32.75363136 178.86230693 -32.60398135 185.89162776 -36.33276367 190.72900391 C-38.73900561 192.56337139 -41.06485068 192.47459475 -44.0078125 192.33984375 C-47.3185295 191.77507438 -48.77211011 190.47543321 -51 188 C-57.93290006 177.6255884 -58.46537958 165.1277564 -58.3125 153.0625 C-58.31572266 151.79470703 -58.31894531 150.52691406 -58.32226562 149.22070312 C-58.18070634 124.11323348 -58.18070634 124.11323348 -51.2421875 115.92578125 C-45.15049035 110.69371384 -35.32870378 110.46576003 -27.625 110.7265625 C-22.35625946 111.27538964 -19.42930934 113.20651029 -16.125 117.1875 C-13.26436127 121.22384627 -11.15880168 125.56577348 -9 130 C-6.16912034 135.80851617 -3.42603963 141.21597187 1 146 C1.91265625 146.99193359 1.91265625 146.99193359 2.84375 148.00390625 C9.88259521 154.92456189 18.51965049 158.29224833 27.49609375 162.04296875 C35.85252449 165.77322731 40.48887441 172.80681684 44 181 C45.815445 186.09190781 47.40254021 191.2562579 49 196.41992188 C51.45256401 205.02576859 51.45256401 205.02576859 57.74121094 210.92089844 C62.49654977 212.90830854 67.14960389 213.54671363 72.25 213.9375 C80.14022514 214.66521079 87.79169166 216.02791675 95.53808594 217.67944336 C96.33891602 217.84968018 97.13974609 218.01991699 97.96484375 218.1953125 C99.02626587 218.42758545 99.02626587 218.42758545 100.10913086 218.66455078 C102.17224724 219.08733865 102.17224724 219.08733865 105 219 C104.67 218.01 104.34 217.02 104 216 C102.845 215.95875 101.69 215.9175 100.5 215.875 C87.15779174 214.37848059 72.13173026 207.3664916 62.9453125 197.56640625 C53.12961101 184.61677598 49.42181126 168.92428613 48 153 C47.67 152.67 47.34 152.34 47 152 C46.505 152.825 46.01 153.65 45.5 154.5 C43 157 43 157 39.625 157.6875 C29.37987843 156.99810864 19.38007446 150.74826481 12 144 C11.17886719 143.27039063 10.35773438 142.54078125 9.51171875 141.7890625 C2.93284205 135.61949376 -1.74448194 128.93030547 -6 121 C-6.48339844 120.10152344 -6.96679688 119.20304687 -7.46484375 118.27734375 C-10.56561179 111.72708908 -11.73502762 105.21623731 -12.875 98.125 C-14.42342519 88.52670238 -17.10438689 81.37839827 -22 73 C-22.97404872 71.15404066 -23.9339533 69.30049971 -24.875 67.4375 C-25.26429687 66.69371094 -25.65359375 65.94992187 -26.0546875 65.18359375 C-29.5277434 57.16112164 -28.58232074 48.73965785 -25.48046875 40.7890625 C-22.83294381 35.80137699 -18.99349995 31.93953373 -15 28 C-14.34 27.34 -13.68 26.68 -13 26 C-14.794375 26.12375 -14.794375 26.12375 -16.625 26.25 C-21.24934637 26.2829135 -23.44232818 24.84613746 -27 22 C-27 24.39134295 -26.95654087 26.7841958 -26.82421875 29.171875 C-26.3723118 40.99892546 -26.3723118 40.99892546 -30.36328125 46.31640625 C-34.71340569 50.79111659 -39.57436783 55.10825811 -46 55.25 C-46.70125 55.27578125 -47.4025 55.3015625 -48.125 55.328125 C-48.74375 55.21984375 -49.3625 55.1115625 -50 55 C-53.80309593 49.2953561 -52.73123374 41.19053181 -51.58105469 34.59912109 C-48.73450043 21.28263395 -45.11517601 7.59865265 -33.08984375 -0.24609375 C-22.54812179 -5.96754523 -10.19500201 -7.05626296 0 0 Z M-40 140 C-39 142 -39 142 -39 142 Z M161 197 C162 199 162 199 162 199 Z M160 199 C159.00769913 200.36555166 158.03173673 201.74298245 157.0625 203.125 C153.6449945 207.63695458 150.13269433 209.92257478 145.21875 212.6015625 C142.1972625 214.50595075 140.85588319 216.99218931 139 220 C136.76072598 221.86687834 134.44693876 223.4000785 132 225 C139.31470165 228.90336097 147.04681811 229.19527551 155.1875 229.25 C155.94756348 229.25918457 156.70762695 229.26836914 157.49072266 229.27783203 C162.3565792 229.25131221 166.3822903 228.54127529 171 227 C171 226.67 171 226.34 171 226 C170.32453125 225.93941406 169.6490625 225.87882812 168.953125 225.81640625 C168.06109375 225.73261719 167.1690625 225.64882813 166.25 225.5625 C164.92742187 225.44068359 164.92742187 225.44068359 163.578125 225.31640625 C161.30649548 225.03761535 159.20148177 224.61209423 157 224 C155.85127825 219.1724605 156.26441564 216.16514091 157.875 211.5 C159.29680469 207.32407014 160.38102289 203.37234896 161 199 C160.67 199 160.34 199 160 199 Z " fill="#ED731F" transform="translate(61,202)"/>
<path d="M0 0 C10.51518188 8.083332 19.75843428 17.30123696 27.73632812 27.8828125 C34.74747986 37.13116585 43.23507693 42.32461052 54.53320312 45.0625 C60.76141239 45.75295759 67.05401356 45.36368072 73.30859375 45.14257812 C81.20277812 45.01043741 81.20277812 45.01043741 85.14648438 47.19921875 C89.08262159 52.00448181 89.22135894 57.66479638 88.86132812 63.6953125 C88.31230055 67.94862251 87.18197423 70.44334192 83.98632812 73.4453125 C77.5107453 76.68310391 68.48512382 74.60905208 61.92382812 72.5703125 C52.2251444 69.06292687 43.10482129 64.23095406 33.98632812 59.4453125 C36.02846233 62.00547236 38.0772347 64.55440039 40.17382812 67.0703125 C43.23373339 71.07984353 43.48859041 74.50640003 42.98632812 79.4453125 C39.94277832 84.79776216 36.23124109 86.78705491 30.45507812 88.69921875 C23.39932239 90.21684189 16.18132557 90.28700673 8.98632812 90.4453125 C13.97943486 91.19094977 18.97389469 91.84718188 23.98632812 92.4453125 C24.9221875 92.57035156 25.85804688 92.69539062 26.82226562 92.82421875 C34.39308596 93.39999311 39.03401681 89.74272112 44.98632812 85.4453125 C46.45620052 84.47278386 47.93439333 83.51260799 49.42382812 82.5703125 C50.31908203 81.98636719 50.31908203 81.98636719 51.23242188 81.390625 C55.45104205 79.11689208 59.69634084 79.25153633 64.42382812 79.1953125 C65.72191406 79.16953125 67.02 79.14375 68.35742188 79.1171875 C72.18028998 79.46285049 73.98452358 80.11360226 76.98632812 82.4453125 C79.54838655 86.28840014 79.65999577 87.8793429 78.98632812 92.4453125 C71.25654611 104.74049702 56.90571169 111.95224895 43.23632812 115.2578125 C18.50630853 120.27464225 -9.17322342 117.89719015 -31.25585938 105.0703125 C-33.53377667 102.96450451 -33.80895752 101.5014054 -34.01367188 98.4453125 C-32.76367188 96.2578125 -32.76367188 96.2578125 -30.01367188 94.4453125 C-26.37744797 93.52058315 -22.73172478 92.93250564 -19.01367188 92.4453125 C-20.04492188 91.9709375 -21.07617188 91.4965625 -22.13867188 91.0078125 C-27.4687483 88.00693614 -30.33803681 82.79658264 -33.01367188 77.4453125 C-33.02785156 78.09757813 -33.04203125 78.74984375 -33.05664062 79.421875 C-33.40657879 85.83425545 -34.33381309 88.99373951 -39.01367188 93.4453125 C-43.1838272 95.53039016 -47.95940956 95.05986492 -52.33789062 93.75 C-60.11014412 90.281391 -66.12822103 84.42480666 -72.41845703 78.83447266 C-74.46691475 77.05061523 -76.59702629 75.3952597 -78.76367188 73.7578125 C-98.9867526 58.23340295 -98.9867526 58.23340295 -100.70117188 48.5703125 C-100.01367188 45.4453125 -100.01367188 45.4453125 -98.32617188 43.7734375 C-92.93913083 40.67952879 -85.22425542 41.85370237 -79.38867188 43.3828125 C-71.55252486 46.36054836 -65.79672254 53.64175457 -60.01367188 59.4453125 C-60.37460938 58.57390625 -60.73554687 57.7025 -61.10742188 56.8046875 C-65.40733123 45.76825349 -66.40532088 37.08535305 -62.79882812 25.578125 C-61.6352664 20.93545584 -61.2573446 16.22719427 -60.92431641 11.45825195 C-60.39158473 5.52140708 -58.4301631 1.95192927 -54.33789062 -2.29296875 C-50.69299181 -4.27162811 -46.87583493 -4.95961438 -42.82617188 -5.7421875 C-41.9413916 -5.91363281 -41.05661133 -6.08507812 -40.14501953 -6.26171875 C-25.25101224 -8.94791652 -12.59806048 -9.30490785 0 0 Z M-34.01367188 31.4453125 C-28.84136425 45.66915846 -17.0532367 58.92838689 -4.01367188 66.4453125 C-2.3609001 67.14571788 -0.69723389 67.82254354 0.98632812 68.4453125 C-2.32726111 65.03131147 -5.74751824 61.94660177 -9.46289062 58.97265625 C-12.32080326 56.15793625 -12.99343394 54.0018558 -13.13867188 50.0078125 C-11.72744344 45.53892247 -10.07310137 44.62214086 -6.09179688 42.4453125 C-3.76747558 41.3268421 -1.45438022 40.28430599 0.98632812 39.4453125 C-2.31740724 38.30104999 -5.34742562 38.49174791 -8.80249023 38.66235352 C-17.97039912 39.05814157 -24.12844092 37.44806887 -32.01367188 32.4453125 C-32.67367187 32.1153125 -33.33367187 31.7853125 -34.01367188 31.4453125 Z M-35.01367188 73.4453125 C-34.01367188 75.4453125 -34.01367188 75.4453125 -34.01367188 75.4453125 Z " fill="#EA6A20" transform="translate(170.013671875,475.5546875)"/>
<path d="M0 0 C0.83789062 -0.03738281 1.67578125 -0.07476563 2.5390625 -0.11328125 C6.86809397 -0.17454113 9.72868209 -0.01793727 13.1640625 2.7734375 C17.42591006 7.2788192 16.95949065 10.94705894 16.90625 16.9765625 C16.29506245 24.36174538 12.86186286 30.19700586 7.625 35.375 C4.87572741 37.44234829 1.98034328 39.24400112 -0.9375 41.0625 C-24.43881287 56.28507553 -43.66596795 79.1313429 -53.1875 105.5 C-58.90414158 120.81907825 -65.58154836 138.48115101 -79.375 148.375 C-86.57983624 150.77661208 -93.66565888 150.1380582 -100.5 146.9375 C-111.44739735 140.82699193 -121.14494378 131.55890111 -125.3125 119.5 C-128.51439868 106.67239341 -125.65353594 93.81998466 -118.91796875 82.56640625 C-113.71041788 75.17036564 -107.19802214 67.31600738 -98.375 64.375 C-93.24723242 63.89079904 -88.85914077 63.52691956 -84.3125 66.125 C-80.74958264 70.26258145 -79.93504343 73.51463237 -80.05908203 78.87792969 C-80.6312863 83.40073125 -82.47101547 87.36374245 -84.3125 91.5 C-86.78899967 97.17156919 -88.84575953 102.1753259 -89.375 108.375 C-89.1797876 107.85292969 -88.9845752 107.33085938 -88.78344727 106.79296875 C-79.51179753 82.23344657 -68.49702172 64.30397395 -47.625 47.8125 C-38.73388015 40.56788382 -34.39126918 33.00552108 -30.375 22.375 C-29.5319293 20.22478299 -28.67796463 18.07880156 -27.8125 15.9375 C-27.43996094 14.99003906 -27.06742187 14.04257812 -26.68359375 13.06640625 C-24.48244797 8.53927358 -21.99014136 5.25229172 -17.375 3.125 C-16.715 2.81046875 -16.055 2.4959375 -15.375 2.171875 C-10.30201222 0.15060643 -5.39725649 0.09050278 0 0 Z " fill="#F3871D" transform="translate(190.375,4.625)"/>
<path d="M0 0 C5.27671538 3.98919682 8.65505095 8.48123794 10 15 C10.86960013 21.98129684 9.85998762 28.3123157 5.48828125 33.94921875 C0.49579852 39.30071147 -4.5307963 42.07509248 -11.9375 42.4375 C-18.44175984 42.22003235 -22.79437768 39.80460008 -27.75 35.75 C-32.47602826 29.97374323 -34.68282256 25.00611356 -34.3125 17.44921875 C-33.44821012 10.67534679 -30.99064416 6.11192677 -25.953125 1.4765625 C-18.20182408 -4.38342099 -8.40434918 -4.74005294 0 0 Z " fill="#880015" transform="translate(154,276)"/>
<path d="M0 0 C5.81315485 3.47970537 8.75350156 7.68282278 10.7109375 14.16015625 C12.14647978 20.46106938 11.8775269 25.03352952 8.7109375 30.72265625 C5.01816499 36.18753511 0.14736581 40.20676593 -6.2265625 42.09765625 C-13.11577799 43.38938415 -18.59036732 42.17940319 -24.3984375 38.2578125 C-28.62954446 34.56011432 -31.96121357 29.13437602 -32.39453125 23.4609375 C-32.44757621 16.70300977 -32.07802519 10.91873058 -28.6640625 4.91015625 C-21.06753743 -2.10202073 -9.59621276 -3.98486801 0 0 Z " fill="#880015" transform="translate(194.2265625,150.33984375)"/>
<path d="M0 0 C1.20269531 -0.02578125 2.40539062 -0.0515625 3.64453125 -0.078125 C8.85460193 0.40439533 12.88076633 2.33489225 16.375 6.25 C20.72387135 11.651756 22.1875 18.10302828 22.1875 24.9375 C19.8162883 32.79213876 15.3327994 38.20674153 8.1875 42.25 C2.96788682 44.44933216 -2.34678047 44.9095912 -7.8125 43.25 C-13.57537621 40.89087696 -17.85053938 38.3252482 -20.4375 32.5 C-22.07793993 27.34654248 -22.3409983 22.60544948 -21.8125 17.25 C-21.77640625 16.54875 -21.7403125 15.8475 -21.703125 15.125 C-21.03919567 10.12600269 -18.73076537 7.97231937 -14.875 4.8125 C-9.77820458 0.97676736 -6.3672275 0.08137032 0 0 Z " fill="#140CD1" transform="translate(361.8125,147.75)"/>
<path d="M0 0 C1.77697266 -0.02513672 1.77697266 -0.02513672 3.58984375 -0.05078125 C8.75086205 0.4891228 12.78338348 2.42833583 16.25 6.3125 C20.59887135 11.714256 22.0625 18.16552828 22.0625 25 C19.6912883 32.85463876 15.2077994 38.26924153 8.0625 42.3125 C2.82894243 44.51770775 -2.47865179 44.96284946 -7.9375 43.3125 C-13.63418398 40.52653046 -18.77702836 37.21367911 -21.1875 31.1875 C-22.65214009 23.62019287 -22.96751994 16.14232327 -18.9375 9.3125 C-13.52075052 2.53153213 -8.77407722 0.02858006 0 0 Z " fill="#880015" transform="translate(184.9375,385.6875)"/>
<path d="M0 0 C1.77697266 -0.02513672 1.77697266 -0.02513672 3.58984375 -0.05078125 C8.75086205 0.4891228 12.78338348 2.42833583 16.25 6.3125 C20.59887135 11.714256 22.0625 18.16552828 22.0625 25 C19.6912883 32.85463876 15.2077994 38.26924153 8.0625 42.3125 C2.83312069 44.5159472 -2.48343135 44.96876456 -7.9375 43.3125 C-14.44281918 40.07735922 -18.92290089 36.6581694 -21.36328125 29.62109375 C-23.07849375 22.72523943 -22.58171966 15.48849332 -18.9375 9.3125 C-13.52075052 2.53153213 -8.77407722 0.02858006 0 0 Z " fill="#140CD1" transform="translate(363.9375,383.6875)"/>
<path d="M0 0 C2.26944044 2.26944044 2.90677844 3.98553009 3.19921875 7.16796875 C2.92414446 16.27437563 -2.24287236 23.34565175 -8.375 29.75 C-18.09115088 38.81406022 -26.96583609 45.09014767 -40.5 45.25 C-42.46453125 45.28867188 -42.46453125 45.28867188 -44.46875 45.328125 C-48.11904181 44.98893859 -49.57965769 44.71683425 -52 42 C-53.16044674 37.52033428 -52.4096438 33.76076706 -50.25 29.75 C-49.5075 28.8425 -48.765 27.935 -48 27 C-47.40832031 26.21367188 -46.81664063 25.42734375 -46.20703125 24.6171875 C-39.49807549 16.66143465 -29.9640922 11.17720245 -21.0625 6 C-19.85581665 5.29689697 -19.85581665 5.29689697 -18.62475586 4.57958984 C-6.65995266 -2.21998422 -6.65995266 -2.21998422 0 0 Z " fill="#F3891D" transform="translate(152,19)"/>
<path d="M0 0 C5.92367823 3.72315691 8.9118257 8.17297711 11.125 14.8125 C12.20118979 21.09417301 10.77815295 25.96764516 7.7578125 31.5078125 C4.54382945 36.04429575 0.3746838 39.0626054 -4.875 40.8125 C-11.7157412 41.55368155 -17.24429796 40.93282059 -22.875 36.8125 C-27.59081017 32.48443423 -30.43476183 28.17486007 -31.08984375 21.68359375 C-31.4206572 13.86316379 -28.78375569 8.05305461 -23.53125 2.32421875 C-16.92272655 -3.70761752 -7.6585527 -3.9930283 0 0 Z " fill="#140CD1" transform="translate(409.875,280.1875)"/>
<path d="M0 0 C7.14886105 7.489283 10.04304428 16.86629925 9.89453125 26.9921875 C9.46624295 31.37438369 8.43486285 33.30791801 5.625 36.75 C-1.61332193 41.51243717 -8.8228645 42.56341315 -17.375 41.75 C-21.02935901 40.04883287 -22.74974667 39.04010018 -24.50463867 35.41918945 C-25.95509844 30.9709772 -25.70289898 26.57875249 -25.6875 21.9375 C-25.70361328 20.97779297 -25.71972656 20.01808594 -25.73632812 19.02929688 C-25.74051089 12.90154066 -25.04398918 8.29473104 -22.375 2.75 C-16.00423604 -2.67192677 -7.71234535 -2.8564242 0 0 Z " fill="#EF791E" transform="translate(27.375,266.25)"/>
<path d="M0 0 C7.4334521 2.88083585 11.1778656 10.68089589 14.8984375 17.25390625 C16.16623006 20.41439622 16.31881048 22.62245711 16 26 C11.99636187 33.41414468 6.75426868 36.57068531 -1.0078125 39.2421875 C-5.65344081 40.41875655 -10.25117191 40.68986354 -15 40 C-15.99 39.34 -16.98 38.68 -18 38 C-19.10789395 30.56611616 -16.22917984 25.40682319 -12.8125 18.9375 C-12.08836914 17.50567383 -12.08836914 17.50567383 -11.34960938 16.04492188 C-4.17289102 2.08644551 -4.17289102 2.08644551 0 0 Z " fill="#165188" transform="translate(393,542)"/>
<path d="M0 0 C5.27671538 3.98919682 8.65505095 8.48123794 10 15 C10.86960013 21.98129684 9.85998762 28.3123157 5.48828125 33.94921875 C0.49579852 39.30071147 -4.5307963 42.07509248 -11.9375 42.4375 C-18.44175984 42.22003235 -22.79437768 39.80460008 -27.75 35.75 C-32.47602826 29.97374323 -34.68282256 25.00611356 -34.3125 17.44921875 C-33.44821012 10.67534679 -30.99064416 6.11192677 -25.953125 1.4765625 C-18.20182408 -4.38342099 -8.40434918 -4.74005294 0 0 Z M-26.80078125 10.28125 C-29.71519678 14.45826249 -29.33572913 19.12762339 -29 24 C-27.88563212 28.08601558 -25.9522848 30.96792372 -23 34 C-18.11504846 36.7242999 -13.55135147 37.94108625 -8 37 C-2.18471028 35.12512517 1.12600307 32.51807411 4 27 C5.60957289 22.8419367 5.72556127 18.18082986 4.31640625 13.9453125 C2.06814576 9.00100519 -0.56754561 6.11214882 -5 3 C-14.39459807 -0.13153269 -20.75531599 3.04573252 -26.80078125 10.28125 Z " fill="#000000" transform="translate(154,276)"/>
<path d="M0 0 C5.92367823 3.72315691 8.9118257 8.17297711 11.125 14.8125 C12.20118979 21.09417301 10.77815295 25.96764516 7.7578125 31.5078125 C4.54382945 36.04429575 0.3746838 39.0626054 -4.875 40.8125 C-11.7157412 41.55368155 -17.24429796 40.93282059 -22.875 36.8125 C-27.59081017 32.48443423 -30.43476183 28.17486007 -31.08984375 21.68359375 C-31.4206572 13.86316379 -28.78375569 8.05305461 -23.53125 2.32421875 C-16.92272655 -3.70761752 -7.6585527 -3.9930283 0 0 Z M-23.265625 9.6796875 C-25.69011912 14.06768038 -26.59542024 17.76955829 -25.875 22.8125 C-24.01780146 28.08614934 -21.66664753 31.74093107 -16.875 34.8125 C-12.52249493 36.26333502 -8.29386245 36.66592929 -3.9375 35.12890625 C1.35436889 32.38032779 4.23194028 28.49167916 6.125 22.8125 C6.70590396 16.88727962 5.65645409 12.5541715 2.125 7.8125 C-1.38878692 4.59411995 -5.07666231 2.54643077 -9.875 2.1875 C-15.39396808 2.6003362 -19.97060251 5.25547191 -23.265625 9.6796875 Z " fill="#000000" transform="translate(409.875,280.1875)"/>
<path d="M0 0 C5.81315485 3.47970537 8.75350156 7.68282278 10.7109375 14.16015625 C12.14647978 20.46106938 11.8775269 25.03352952 8.7109375 30.72265625 C5.01816499 36.18753511 0.14736581 40.20676593 -6.2265625 42.09765625 C-13.11577799 43.38938415 -18.59036732 42.17940319 -24.3984375 38.2578125 C-28.62954446 34.56011432 -31.96121357 29.13437602 -32.39453125 23.4609375 C-32.44757621 16.70300977 -32.07802519 10.91873058 -28.6640625 4.91015625 C-21.06753743 -2.10202073 -9.59621276 -3.98486801 0 0 Z M-25.02734375 10.94140625 C-27.94175928 15.11841874 -27.56229163 19.78777964 -27.2265625 24.66015625 C-26.11219462 28.74617183 -24.1788473 31.62807997 -21.2265625 34.66015625 C-16.34161096 37.38445615 -11.77791397 38.6012425 -6.2265625 37.66015625 C-0.41127278 35.78528142 2.89944057 33.17823036 5.7734375 27.66015625 C7.38301039 23.50209295 7.49899877 18.84098611 6.08984375 14.60546875 C3.84158326 9.66116144 1.20589189 6.77230507 -3.2265625 3.66015625 C-12.62116057 0.52862356 -18.98187849 3.70588877 -25.02734375 10.94140625 Z " fill="#000000" transform="translate(194.2265625,150.33984375)"/>
<path d="M0 0 C1.20269531 -0.02578125 2.40539062 -0.0515625 3.64453125 -0.078125 C8.85460193 0.40439533 12.88076633 2.33489225 16.375 6.25 C20.72387135 11.651756 22.1875 18.10302828 22.1875 24.9375 C19.8162883 32.79213876 15.3327994 38.20674153 8.1875 42.25 C2.96788682 44.44933216 -2.34678047 44.9095912 -7.8125 43.25 C-13.57537621 40.89087696 -17.85053938 38.3252482 -20.4375 32.5 C-22.07793993 27.34654248 -22.3409983 22.60544948 -21.8125 17.25 C-21.77640625 16.54875 -21.7403125 15.8475 -21.703125 15.125 C-21.03919567 10.12600269 -18.73076537 7.97231937 -14.875 4.8125 C-9.77820458 0.97676736 -6.3672275 0.08137032 0 0 Z M-14.61328125 12.53125 C-17.52769678 16.70826249 -17.14822913 21.37762339 -16.8125 26.25 C-15.69813212 30.33601558 -13.7647848 33.21792372 -10.8125 36.25 C-5.92754846 38.9742999 -1.36385147 40.19108625 4.1875 39.25 C10.00278972 37.37512517 13.31350307 34.76807411 16.1875 29.25 C17.79707289 25.0919367 17.91306127 20.43082986 16.50390625 16.1953125 C14.25564576 11.25100519 11.61995439 8.36214882 7.1875 5.25 C-2.20709807 2.11846731 -8.56781599 5.29573252 -14.61328125 12.53125 Z " fill="#000203" transform="translate(361.8125,147.75)"/>
<path d="M0 0 C1.77697266 -0.02513672 1.77697266 -0.02513672 3.58984375 -0.05078125 C8.75086205 0.4891228 12.78338348 2.42833583 16.25 6.3125 C20.59887135 11.714256 22.0625 18.16552828 22.0625 25 C19.6912883 32.85463876 15.2077994 38.26924153 8.0625 42.3125 C2.82894243 44.51770775 -2.47865179 44.96284946 -7.9375 43.3125 C-13.63418398 40.52653046 -18.77702836 37.21367911 -21.1875 31.1875 C-22.65214009 23.62019287 -22.96751994 16.14232327 -18.9375 9.3125 C-13.52075052 2.53153213 -8.77407722 0.02858006 0 0 Z M-14.73828125 12.59375 C-17.65269678 16.77076249 -17.27322913 21.44012339 -16.9375 26.3125 C-15.82313212 30.39851558 -13.8897848 33.28042372 -10.9375 36.3125 C-6.05254846 39.0367999 -1.48885147 40.25358625 4.0625 39.3125 C9.87778972 37.43762517 13.18850307 34.83057411 16.0625 29.3125 C17.67207289 25.1544367 17.78806127 20.49332986 16.37890625 16.2578125 C14.13064576 11.31350519 11.49495439 8.42464882 7.0625 5.3125 C-2.33209807 2.18096731 -8.69281599 5.35823252 -14.73828125 12.59375 Z " fill="#010000" transform="translate(184.9375,385.6875)"/>
<path d="M0 0 C1.77697266 -0.02513672 1.77697266 -0.02513672 3.58984375 -0.05078125 C8.75086205 0.4891228 12.78338348 2.42833583 16.25 6.3125 C20.59887135 11.714256 22.0625 18.16552828 22.0625 25 C19.6912883 32.85463876 15.2077994 38.26924153 8.0625 42.3125 C2.83312069 44.5159472 -2.48343135 44.96876456 -7.9375 43.3125 C-14.44281918 40.07735922 -18.92290089 36.6581694 -21.36328125 29.62109375 C-23.07849375 22.72523943 -22.58171966 15.48849332 -18.9375 9.3125 C-13.52075052 2.53153213 -8.77407722 0.02858006 0 0 Z M-14.73828125 12.59375 C-17.65269678 16.77076249 -17.27322913 21.44012339 -16.9375 26.3125 C-15.82313212 30.39851558 -13.8897848 33.28042372 -10.9375 36.3125 C-6.05254846 39.0367999 -1.48885147 40.25358625 4.0625 39.3125 C9.87778972 37.43762517 13.18850307 34.83057411 16.0625 29.3125 C17.67207289 25.1544367 17.78806127 20.49332986 16.37890625 16.2578125 C14.13064576 11.31350519 11.49495439 8.42464882 7.0625 5.3125 C-2.33209807 2.18096731 -8.69281599 5.35823252 -14.73828125 12.59375 Z " fill="#000000" transform="translate(363.9375,383.6875)"/>
<path d="M0 0 C0.66 0.33 1.32 0.66 2 1 C-0.64 3.64 -3.28 6.28 -6 9 C-6 6 -6 6 -3.5625 3.375 C-2.716875 2.59125 -1.87125 1.8075 -1 1 C-0.67 0.67 -0.34 0.34 0 0 Z " fill="#8D4812" transform="translate(171,151)"/>
</svg>
