<?xml version="1.0" encoding="UTF-8"?>
<svg version="1.1" xmlns="http://www.w3.org/2000/svg" width="528" height="595">
<path d="M0 0 C5.62169204 3.844464 11.0139041 7.75634493 14 14 C14.4375 17.1875 14.4375 17.1875 14 20 C11.87571933 22.7060118 10.18151827 23.44090774 6.83203125 23.9921875 C6.02056641 24.14042969 5.20910156 24.28867187 4.37304688 24.44140625 C2.68628281 24.72703678 0.99878891 25.00839526 -0.68945312 25.28515625 C-7.69947891 26.57778512 -13.16762171 28.97210306 -18.09375 34.23828125 C-18.5578125 34.92277344 -19.021875 35.60726562 -19.5 36.3125 C-20.22703125 37.35857422 -20.22703125 37.35857422 -20.96875 38.42578125 C-21.3090625 38.94527344 -21.649375 39.46476562 -22 40 C-18.15465381 38.18632198 -14.79862645 35.85991406 -11.31640625 33.4375 C-5.36248835 29.74265719 0.10746592 29.17897756 7 30 C12.40976816 32.65570437 15.72928577 36.33755113 18.3125 41.75 C19.48294537 47.28301449 18.32690838 52.32760557 17.2578125 57.796875 C14.80800098 70.39002378 14.22546757 81.99501393 16 94.8125 C16.84239611 100.93956811 17.25048963 106.94006218 17.3125 113.125 C17.32990234 113.9188208 17.34730469 114.7126416 17.36523438 115.53051758 C17.35988272 121.80466145 15.69144899 125.76131752 11.875 130.8125 C8.02470849 133.74206962 4.80278816 134.4250255 0 134 C-4.88819892 131.64990437 -7.74778546 128.20874823 -11 124 C-10.938125 125.03125 -10.87625 126.0625 -10.8125 127.125 C-10.86384219 136.93135764 -14.04044296 146.33789983 -17.0625 155.5625 C-21.15256364 168.15775384 -22.32801859 179.82458655 -22 193 C-21.81207886 191.95827637 -21.81207886 191.95827637 -21.62036133 190.89550781 C-15.3815901 156.79588387 -15.3815901 156.79588387 -4.6875 148.125 C-1.1448287 146.64202132 2.25124836 145.92081392 6 147 C12.60237459 152.63111297 13.9400849 159.73389943 15 168 C15.6667552 176.7565187 15.52437004 185.5378823 15.4375 194.3125 C15.42703523 196.7820636 15.416619 199.2516274 15.40625 201.72119141 C15.29889885 216.57375385 14.58715179 231.23088157 13.07910156 246.00024414 C11.07305672 265.89932964 11.2446031 285.89708344 13.27905273 305.79125977 C16.93436037 342.65422091 16.93436037 342.65422091 10 353.625 C6.39783491 357.90257104 6.39783491 357.90257104 2.9375 358.75 C-4.95090584 359.25085116 -11.8088021 356.51226906 -18.875 353.25 C-20.050625 352.71439453 -20.050625 352.71439453 -21.25 352.16796875 C-40.16771681 343.45832685 -58.3710047 331.42302815 -66.47265625 311.3515625 C-73.3793015 292.16398502 -75.49869285 269.75785671 -66.95800781 250.67138672 C-64.57371716 245.78827181 -61.95027578 241.04436498 -59.28710938 236.30908203 C-49.16276335 218.1459438 -46.62640302 205.63244262 -51.0625 185.125 C-56.68755433 158.70398736 -47.68243251 139.86248745 -34.03735352 117.73828125 C-33.54291748 116.93390625 -33.04848145 116.12953125 -32.5390625 115.30078125 C-32.09771973 114.59091064 -31.65637695 113.88104004 -31.20166016 113.1496582 C-27.40946445 106.36577296 -26.89087767 100.30046488 -28.828125 92.7890625 C-30.21765363 88.50641082 -31.49393686 84.75909471 -34 81 C-33.76603516 82.30710938 -33.76603516 82.30710938 -33.52734375 83.640625 C-29.98948432 105.28951318 -37.79084815 118.72201004 -50 136 C-60.82703314 150.34959674 -77.03874724 154.32942694 -94 157 C-95.7474255 157.28236853 -97.49482012 157.56492826 -99.2421875 157.84765625 C-103.82542161 158.58323703 -108.41169343 159.29679215 -113 160 C-111.88625 160.12117187 -110.7725 160.24234375 -109.625 160.3671875 C-106.42621764 160.71656907 -103.22855356 161.07484864 -100.03125 161.4375 C-96.88725588 161.79378724 -93.74264538 162.12777259 -90.59375 162.4375 C-80.0684275 163.5251744 -70.65885679 165.13681915 -63 173 C-60.953125 176.234375 -60.953125 176.234375 -59.25 179.75 C-58.67765625 180.89984375 -58.1053125 182.0496875 -57.515625 183.234375 C-52.84561087 194.00590791 -51.65329028 209.10623707 -55.1875 220.375 C-58.01125316 226.21619336 -63.2344269 230.47453979 -67.859375 234.89453125 C-76.50296078 243.255597 -80.42736146 253.20118859 -81.203125 265.12109375 C-81.31324633 272.91217768 -80.33851791 279.89843448 -78.68359375 287.5 C-76.8958826 296.6530811 -76.8958826 296.6530811 -78 301 C-80.89363301 303.67110833 -82.75369419 304.36589799 -86.66015625 304.2578125 C-87.53607422 304.24363281 -88.41199219 304.22945313 -89.31445312 304.21484375 C-90.22130859 304.18519531 -91.12816406 304.15554688 -92.0625 304.125 C-93.86578646 304.08160882 -95.66917882 304.04236697 -97.47265625 304.0078125 C-98.26937744 303.98348145 -99.06609863 303.95915039 -99.88696289 303.93408203 C-102.19252698 303.90501265 -102.19252698 303.90501265 -105 305 C-111.83996524 305.74109748 -117.35235338 305.09359621 -123 301 C-125.66606564 298.21274955 -127.71625664 295.45601611 -129.75 292.1875 C-131.79604527 289.28893586 -133.83271937 287.13625191 -136.375 284.6875 C-145.3778026 275.81796257 -149.97457593 266.84270168 -150.375 254.0625 C-150.00861302 241.74871139 -146.00292851 229.53004966 -137.51953125 220.40234375 C-132.51781898 215.78636765 -126.57960794 215 -120 215 C-116.96296186 215.71079616 -115.61356286 216.40593914 -113.40234375 218.546875 C-111.37889379 222.08650335 -111.54625792 225.587623 -111.5 229.5625 C-111.41295337 236.78115304 -110.12559451 243.09588052 -108 250 C-108.0314209 248.9958606 -108.0314209 248.9958606 -108.06347656 247.97143555 C-108.14769478 244.87694919 -108.19899015 241.78270507 -108.25 238.6875 C-108.28351563 237.63498047 -108.31703125 236.58246094 -108.3515625 235.49804688 C-108.46426263 226.34116166 -106.85884422 218.2585502 -101 211 C-101.55872803 211.04600342 -102.11745605 211.09200684 -102.69311523 211.1394043 C-105.27349087 211.34100863 -107.85506395 211.51436561 -110.4375 211.6875 C-111.31599609 211.76033203 -112.19449219 211.83316406 -113.09960938 211.90820312 C-120.44785635 212.36916327 -126.78236566 211.74314448 -132.54296875 206.83203125 C-134.46958856 203.08726084 -134.47493181 199.79161035 -134.3125 195.6875 C-134.30283203 194.96626953 -134.29316406 194.24503906 -134.28320312 193.50195312 C-134.18232281 188.61145077 -133.67311156 183.84311978 -133 179 C-136.50375917 187.69716659 -139.39648296 196.41679245 -141.9375 205.4375 C-149.91314892 232.87335741 -149.91314892 232.87335741 -159 241 C-162.33192392 242.66596196 -165.41117483 242.57146898 -169 242 C-178.36159155 238.699092 -185.72057057 232.57169125 -193.28613281 226.37841797 C-195.92551274 224.25563463 -198.6480478 222.25915244 -201.375 220.25 C-216.0335805 209.25117191 -216.0335805 209.25117191 -218 202 C-219.65812836 189.46928712 -215.37416921 175.76190013 -212 163.8125 C-211.62657471 162.48545044 -211.62657471 162.48545044 -211.24560547 161.1315918 C-207.98619252 149.98619252 -207.98619252 149.98619252 -204 146 C-200.71396412 146.08647463 -199.31135286 146.71611945 -196.875 148.9375 C-192.25380535 156.48545126 -191.55541325 164.77877724 -191.0625 173.4375 C-190.15524481 185.65967629 -188.5419814 195.51207468 -179 204 C-176.09039989 206.1636676 -173.11039345 208.13799576 -170 210 C-170.53109375 209.11699219 -171.0621875 208.23398438 -171.609375 207.32421875 C-178.72222904 195.3243246 -185.56527491 182.57069808 -182 168.1875 C-181.81566406 167.47207031 -181.63132813 166.75664062 -181.44140625 166.01953125 C-180.6966527 162.612119 -180.95484323 160.31990974 -182 157 C-183.63349533 155.13131555 -185.39273626 153.48867606 -187.21875 151.80859375 C-193.0869692 145.85029224 -194.96206021 136.99606123 -195.3125 128.875 C-194.73759605 109.39590131 -186.01749598 87.73308547 -172.1875 73.8125 C-171.13208844 72.86702714 -170.07051503 71.92833726 -169 71 C-167.8553125 69.7625 -167.8553125 69.7625 -166.6875 68.5 C-159.18598234 61.52184404 -151.72471316 56.36392095 -141.25 56.62890625 C-139 57 -139 57 -136.875 59 C-134.00927895 68.82532931 -137.57997296 80.72244593 -142.0625 89.6875 C-144.74581279 94.1207994 -148.35605358 97.73933696 -151.90039062 101.48242188 C-159.09041947 109.16156833 -163.70591395 117.00085942 -164.09765625 127.65625 C-163.84256666 134.92120144 -161.70724711 140.44204559 -157 146 C-152.40096431 149.96721929 -147.69446048 152.88868489 -142 155 C-142.51949219 154.53851563 -143.03898437 154.07703125 -143.57421875 153.6015625 C-150.76200779 146.87878754 -155.56267498 139.34121279 -156.25 129.375 C-155.9910601 116.66340486 -148.70841496 107.05610969 -139.99804688 98.37817383 C-124.85848431 84.20815199 -105.11185327 74.77268858 -87 65 C-85.36276362 64.10511304 -83.72598241 63.20939237 -82.08984375 62.3125 C-73.49131314 57.63450173 -66.98383356 54.70910543 -57 56 C-54.03337027 57.32778733 -51.53077195 58.96958124 -49 61 C-49.46830176 58.81459181 -50.00063409 56.99876799 -51.02734375 55.00390625 C-52.80805406 51.33521393 -52.80814952 47.96234503 -52 44 C-50.43667604 41.01965246 -48.6488306 38.31878184 -46.7421875 35.546875 C-44.00726326 31.54873463 -42.42510959 27.5056745 -41.11328125 22.859375 C-37.79507067 11.16038748 -37.79507067 11.16038748 -33 8 C-30.32009784 7.07176573 -27.80489737 6.52294697 -25 6 C-25 5.67 -25 5.34 -25 5 C-30.82004164 4.69368202 -34.80319786 5.00184492 -40 8 C-43.1240263 12.08435318 -44.80367695 15.92391333 -46.3125 20.8125 C-52.06793033 37.39860378 -65.92286269 45.12714478 -80.15625 53.9609375 C-85.16809603 57.08043438 -90.07156242 60.34755174 -94.9284668 63.70263672 C-101.4631043 68.1491203 -107.49275203 71.89836186 -115.609375 71.5 C-119.90725969 70.60109601 -122.34931416 68.4147866 -125 65 C-130.64404661 55.85844578 -133.10715134 46.7351636 -132 36 C-130.17809813 29.03968027 -125.99357052 24.01416256 -121 19 C-120.42636719 18.40316406 -119.85273437 17.80632813 -119.26171875 17.19140625 C-111.41181264 9.64406611 -100.47499872 3.93090657 -89.5 3.75 C-88.5615625 3.72421875 -87.623125 3.6984375 -86.65625 3.671875 C-83.53915596 4.05692779 -82.20651666 4.78837567 -80 7 C-79.39136254 11.03222314 -79.70352338 13.36837589 -81.4375 17.0625 C-84.82154408 20.94177004 -88.65140558 23.30801298 -93 26 C-94.69142049 27.11909694 -96.37909606 28.24388001 -98.0625 29.375 C-100.03125 30.6875 -100.03125 30.6875 -102 32 C-97.83837963 31.07608264 -94.30354067 29.2393706 -90.5625 27.25 C-89.90701172 26.91484375 -89.25152344 26.5796875 -88.57617188 26.234375 C-79.60669596 21.48424132 -76.14649784 14.92536108 -71.92578125 6.03710938 C-68.38626719 -1.07001012 -63.85744784 -6.37751648 -56.3125 -9.375 C-37.62850289 -15.48322982 -16.28875465 -9.79311712 0 0 Z M-67.91015625 88.6796875 C-77.5731846 94.046088 -85.03955087 101.67235798 -92.15771484 110.01391602 C-95.83290747 114.20634263 -98.61591429 115.73742235 -104.12109375 116.34375 C-105.21550781 116.3953125 -106.30992187 116.446875 -107.4375 116.5 C-111.99261078 116.71511739 -115.72114185 117.39946181 -120 119 C-116.84294969 120.80508994 -114.15580461 121.36882195 -110.5625 121.8125 C-104.52527222 122.72588132 -99.24157374 124.64318403 -93.6171875 126.9765625 C-91.15792123 128.12139656 -91.15792123 128.12139656 -89 128 C-88.85304687 127.18917969 -88.70609375 126.37835938 -88.5546875 125.54296875 C-85.17569416 108.86161659 -76.79983325 98.58843999 -63 89 C-65.82402462 87.71645667 -65.82402462 87.71645667 -67.91015625 88.6796875 Z M-18 230 C-17 232 -17 232 -17 232 Z M-19 233 C-21.57659893 243.08071604 -23.03860821 253.10830988 -24.15405273 263.4440918 C-24.36835703 265.40054424 -24.60386814 267.35463674 -24.83984375 269.30859375 C-24.96738037 270.45126709 -25.09491699 271.59394043 -25.22631836 272.77124023 C-26.13097706 276.54659881 -27.63046953 278.94726008 -30 282 C-32.9615696 283.4807848 -35.83506295 283.35314037 -39.125 283.5625 C-40.40632812 283.64628906 -41.68765625 283.73007812 -43.0078125 283.81640625 C-43.99523437 283.87699219 -44.98265625 283.93757813 -46 284 C-42.76062207 288.68835418 -39.12362675 291.01103495 -34.3125 293.8125 C-24.42043377 299.81474045 -17.28673962 305.95203555 -10.82421875 315.6796875 C-8.98955954 318.01327973 -7.73578167 318.94916995 -5 320 C-6.63879161 314.70042514 -8.87859389 309.75622216 -11.34570312 304.80078125 C-18.29688659 289.75244916 -17.52396058 272.68216696 -17.6875 256.5 C-17.72074789 254.21222097 -17.75524415 251.92445972 -17.79101562 249.63671875 C-17.87505081 244.09126834 -17.94374822 238.54579828 -18 233 C-18.33 233 -18.66 233 -19 233 Z M-107 253 C-106 256 -106 256 -106 256 Z " fill="#2396CD" transform="translate(238,16)"/>
<path d="M0 0 C3.7659975 3.05250154 7.31843911 6.32614131 10.84912109 9.64550781 C14.39468995 12.96750333 18.06699997 15.95241518 22.01953125 18.7734375 C28.28231413 24.14153711 31.81729274 30.3894056 35.40234375 37.7265625 C45.1964608 56.98698804 58.67392309 72.02943829 79.53564453 79.44921875 C84.57118332 81.08076879 89.66073549 82.51478581 94.76025391 83.93115234 C119.563985 90.88267771 119.563985 90.88267771 125.15234375 100.6015625 C125.71484375 103.5390625 125.71484375 103.5390625 125.15234375 106.6015625 C121.51514403 111.74959903 117.50517408 114.55186074 112.08984375 117.6640625 C107.19647677 120.48767353 103.42326312 122.83536571 100.15234375 127.6015625 C100.93738281 127.19164062 101.72242188 126.78171875 102.53125 126.359375 C103.58183594 125.82054687 104.63242188 125.28171875 105.71484375 124.7265625 C106.74738281 124.19289063 107.77992188 123.65921875 108.84375 123.109375 C123.43935897 116.45777516 140.47681035 118.44318565 155.16015625 123.85302734 C156.14628906 124.22355225 156.14628906 124.22355225 157.15234375 124.6015625 C157.81492188 124.84213379 158.4775 125.08270508 159.16015625 125.33056641 C176.50622239 131.66953322 192.3206976 139.68964585 201.2109375 156.6171875 C203.69357923 162.08137503 204.27767679 167.13808056 204.31347656 173.08496094 C204.32308411 174.37690369 204.33269165 175.66884644 204.34259033 176.99993896 C204.34743956 178.40360333 204.35171808 179.80726977 204.35546875 181.2109375 C204.35970982 182.2794331 204.35970982 182.2794331 204.36403656 183.36951447 C204.37899543 187.14055244 204.38824521 190.9115525 204.39257812 194.68261719 C204.3980522 198.55704826 204.4220669 202.43112603 204.45055008 206.30544662 C204.46927458 209.30309019 204.47438728 212.30065039 204.475914 215.29834747 C204.4789199 216.72554705 204.48687782 218.15274589 204.50009918 219.57988739 C204.65323225 237.38254302 204.65323225 237.38254302 198.71484375 244.5390625 C194.03085891 248.30909908 190.52410077 249.13152703 184.55859375 248.96484375 C182.15234375 248.6015625 182.15234375 248.6015625 179.21484375 246.7265625 C174.81121729 240.0544012 173.96401441 232.60599572 172.77734375 224.8515625 C171.20359944 214.66626386 169.08692824 204.56676465 162.15234375 196.6015625 C162.41789063 197.47554687 162.6834375 198.34953125 162.95703125 199.25 C167.27545203 214.28566944 172.01576791 233.5156604 164.08984375 248.1015625 C158.69053901 255.51766636 149.89465716 259.25761681 141.21484375 261.2890625 C132.46497203 262.18190655 124.10501329 262.11811313 116.66015625 256.83203125 C112.39183365 253.17246942 108.95458323 249.47502247 106.15234375 244.6015625 C108.3746162 252.68654056 110.92910824 258.08136166 118.15234375 262.6015625 C121.42825184 264.23951654 124.71951004 265.73905556 128.1015625 267.14453125 C132.305153 269.15213593 135.44563595 271.04680533 137.40234375 275.3515625 C138.2695814 279.10959232 138.75551841 282.76558424 139.15234375 286.6015625 C139.31089844 285.73273438 139.46945313 284.86390625 139.6328125 283.96875 C142.11378334 271.71467304 142.11378334 271.71467304 147.15234375 267.6015625 C159.86023643 260.40802455 180.46026896 256.37974634 194.7890625 260.328125 C200.37753608 262.86927934 203.27613607 266.27961215 205.40234375 271.9140625 C208.39823051 286.21874705 206.16895515 301.64260928 198.7421875 314.171875 C190.02208696 327.49841685 175.45663315 335.57747253 160.046875 338.87109375 C154.01045173 339.92218675 147.95491634 340.04049839 141.83984375 340.1015625 C140.75509766 340.12001221 139.67035156 340.13846191 138.55273438 340.1574707 C131.85842534 340.10590533 122.22915538 339.67837413 117.15234375 334.6015625 C117.33984375 331.1640625 117.33984375 331.1640625 118.15234375 327.6015625 C120.94904081 325.71128491 123.42527386 325.31107935 126.75 325.109375 C128.06762329 325.015354 128.06762329 325.015354 129.41186523 324.91943359 C130.7993396 324.8239624 130.7993396 324.8239624 132.21484375 324.7265625 C148.37832953 323.3587037 165.01838574 317.02330361 176.15234375 304.6015625 C178.00275179 302.02372133 179.64447968 299.3925609 181.15234375 296.6015625 C180.76304687 297.02566406 180.37375 297.44976563 179.97265625 297.88671875 C167.68385679 310.77013754 150.93657897 319.30262243 132.96484375 319.9765625 C123.03596142 319.62138297 115.21294222 315.95421436 108.33984375 308.8515625 C102.02672775 301.52642027 97.79680692 292.71574458 93.37890625 284.171875 C89.94996952 277.58767254 86.15361606 271.61237362 81.7890625 265.6315918 C74.56972713 255.731384 67.40936988 245.43178679 69.15234375 232.6015625 C70.94783192 227.31484732 73.34909114 225.30983713 78.15234375 222.6015625 C81.17741185 221.73690426 84.23848864 221.23966338 87.33984375 220.7265625 C103.92448184 217.56871331 116.24244772 208.63826431 125.7890625 194.69140625 C126.23894531 194.00175781 126.68882812 193.31210937 127.15234375 192.6015625 C126.82234375 192.2715625 126.49234375 191.9415625 126.15234375 191.6015625 C125.36923828 192.45427734 125.36923828 192.45427734 124.5703125 193.32421875 C114.63312385 203.74869511 101.20946328 212.86616372 86.3984375 213.76953125 C85.47160156 213.77597656 84.54476562 213.78242188 83.58984375 213.7890625 C82.66042969 213.80324219 81.73101562 213.81742188 80.7734375 213.83203125 C78.04272708 213.59192407 76.4427212 213.0817384 74.15234375 211.6015625 C73.00419378 209.30526256 72.84464566 207.52458164 72.58984375 204.9765625 C72.50605469 204.15929687 72.42226562 203.34203125 72.3359375 202.5 C72.27535156 201.87351562 72.21476562 201.24703125 72.15234375 200.6015625 C65.46516373 216.05349303 60.03091186 231.85771148 65.15234375 248.6015625 C66.63399538 251.91776886 68.3676215 255.06505451 70.15234375 258.2265625 C74.95315457 266.81315556 78.89142417 274.35868781 76.46484375 284.46484375 C74.35394134 291.52757139 71.78714603 297.92064746 65.16015625 301.75390625 C61.3324297 303.36989197 57.97245419 303.10457484 54.00390625 302.0078125 C45.2396173 298.39727486 39.22286888 290.97216465 32.79394531 284.27636719 C30.91477367 282.35918732 28.95396081 280.58235055 26.90234375 278.8515625 C5.05598949 260.19410963 5.05598949 260.19410963 3.94921875 248.4453125 C3.93375 247.671875 3.91828125 246.8984375 3.90234375 246.1015625 C3.8765625 245.328125 3.85078125 244.5546875 3.82421875 243.7578125 C4.15234375 241.6015625 4.15234375 241.6015625 5.3203125 239.84375 C9.84720246 236.77434487 16.86673512 238.19544196 21.98828125 239.10546875 C27.26760458 240.49267833 30.83128692 242.07284864 34.15234375 246.6015625 C35.80167607 249.97553912 36.86107433 253.46150184 37.7890625 257.09375 C39.40383077 263.23546976 41.59908454 267.15145156 46.15234375 271.6015625 C45.31984633 269.10407024 44.44528439 267.34519479 43.15234375 265.1015625 C40.24117158 259.25781248 39.20571393 253.19170646 40.88671875 246.81640625 C42.49887867 242.60618861 44.34678746 239.14075563 47.15234375 235.6015625 C46.353125 235.58738281 45.55390625 235.57320312 44.73046875 235.55859375 C30.75022358 234.95147043 20.9646761 230.18860124 11.44628906 220.07324219 C3.98947545 211.59217192 -1.17656472 200.5287551 -3.84765625 189.6015625 C-3.50755798 197.90389709 -1.23289358 204.05545784 2.35742188 211.45703125 C4.91596979 217.05530066 6.39334155 222.42677323 5.15234375 228.6015625 C3.28915376 230.9979053 2.47264116 231.52707473 -0.53515625 232.2265625 C-7.76776833 230.86191871 -12.82288363 223.98718436 -17.0546875 218.3125 C-24.68441237 206.77648898 -31.85301415 193.37637016 -32.09765625 179.2890625 C-32.1234375 178.40605469 -32.14921875 177.52304687 -32.17578125 176.61328125 C-31.34093372 168.95057359 -28.0889661 164.1235059 -22.72265625 158.7890625 C-18.50852384 154.72258866 -18.50852384 154.72258866 -15.84765625 149.6015625 C-16.62689453 150.32472656 -16.62689453 150.32472656 -17.421875 151.0625 C-22.36265307 155.53751156 -25.67392918 158.32796534 -32.47265625 158.9140625 C-35.84765625 158.6015625 -35.84765625 158.6015625 -37.453125 157.5234375 C-42.13446044 151.07184916 -42.84299888 138.34614626 -41.84765625 130.6015625 C-40.94830937 126.53010067 -39.79279373 123.44168471 -36.59765625 120.6015625 C-28.51136322 117.66109231 -19.65169597 120.96297198 -11.84765625 123.6015625 C-6.73577492 126.0668085 -3.82058555 129.2308105 -1.84765625 134.6015625 C-0.91517126 138.97961261 -0.72102681 143.22754787 -0.60864258 147.68212891 C-0.36612436 156.28548297 0.15548507 163.81347131 4.15234375 171.6015625 C4.56355469 172.42398438 4.97476563 173.24640625 5.3984375 174.09375 C10.65522333 183.65425 18.48213983 193.96136658 29.15234375 197.6015625 C33.12099142 198.32508852 36.23065439 198.01120222 39.96484375 196.3515625 C42.14271257 194.60926744 43.62834535 192.92766532 45.15234375 190.6015625 C44.29382813 191.08496094 44.29382813 191.08496094 43.41796875 191.578125 C39.11602419 193.5214172 34.51312406 193.3289616 30.03515625 191.94921875 C18.46395963 186.70390977 12.8379266 175.59215388 7.7578125 164.578125 C2.06726583 149.25587567 5.04538034 130.61299747 6.15234375 114.6015625 C5.54390625 115.55933594 4.93546875 116.51710938 4.30859375 117.50390625 C2.15234375 120.6015625 2.15234375 120.6015625 -0.34765625 122.1640625 C-11.0430139 123.50098221 -23.04355895 117.38250346 -31.84765625 111.6015625 C-37.42486846 106.5782515 -39.4577902 100.59088953 -40.18359375 93.1640625 C-40.31171576 81.47933531 -38.97590154 70.26959597 -31.84765625 60.6015625 C-29.84765625 58.6015625 -29.84765625 58.6015625 -27.09765625 58.2265625 C-22.8918644 58.71184617 -21.04365516 59.82243302 -17.84765625 62.6015625 C-15.67695206 65.87269311 -14.27095723 69.40997956 -12.9609375 73.09765625 C-8.42629286 85.66838 1.01194134 90.12518212 12.10644531 96.43212891 C26.19268459 104.48380983 33.91357875 111.8587307 39.54296875 127.359375 C43.65515372 138.62690437 49.37789094 146.56828651 59.5234375 153.25 C61.51185848 154.89986489 62.29173822 156.16689609 63.15234375 158.6015625 C63.12890625 160.9609375 63.12890625 160.9609375 62.77734375 163.3515625 C62.66648437 164.15078125 62.555625 164.95 62.44140625 165.7734375 C62.34601563 166.37671875 62.250625 166.98 62.15234375 167.6015625 C63.72435547 166.86099609 63.72435547 166.86099609 65.328125 166.10546875 C66.70699037 165.45824623 68.08589887 164.81111561 69.46484375 164.1640625 C70.15513672 163.83857422 70.84542969 163.51308594 71.55664062 163.17773438 C89.90154704 154.58132895 111.26533949 160.89431124 129.40893555 167.40673828 C133.71991562 169.00102776 137.94101195 170.76081177 142.15234375 172.6015625 C128.92601303 162.44772011 115.20533555 159.16109993 99.20654297 156.02392578 C60.25884055 148.38458665 60.25884055 148.38458665 50.3359375 135.42578125 C45.07292492 127.3141414 45.09835998 118.25780232 46.5859375 108.86328125 C48.14536557 102.79022909 51.23057808 97.91464516 54.7265625 92.75390625 C56.24438603 90.89290824 56.24438603 90.89290824 56.15234375 89.6015625 C51.67040395 92.61825275 48.41993988 95.24476766 45.15234375 99.6015625 C41.20258087 101.57644394 36.13704262 100.24378022 32.06542969 98.92626953 C30.01073343 98.07596318 28.02082137 97.14928998 26.02734375 96.1640625 C25.30232666 95.81351807 24.57730957 95.46297363 23.83032227 95.10180664 C16.14874485 91.27731193 9.06062605 86.67534356 2.15234375 81.6015625 C1.33894531 81.00601563 0.52554688 80.41046875 -0.3125 79.796875 C-7.85492431 73.74556336 -13.92803307 64.7126022 -15.18359375 55.00390625 C-15.24909121 50.87101635 -15.13046787 48.1784982 -13.28515625 44.4140625 C-10.84765625 42.6015625 -10.84765625 42.6015625 -7.59765625 42.4765625 C-3.75943128 43.62802999 -1.3116947 45.1713173 1.953125 47.390625 C5.75765745 49.48548301 9.89057527 50.01644265 14.15234375 50.6015625 C13.48847656 50.22644531 12.82460938 49.85132813 12.140625 49.46484375 C4.92586524 45.28344284 -0.81958709 41.10210508 -4.84765625 33.6015625 C-5.73758958 29.96138323 -6.34566685 26.31364204 -6.84765625 22.6015625 C-7.34394531 23.66375 -7.84023438 24.7259375 -8.3515625 25.8203125 C-12.04697404 33.56831291 -15.5078553 40.64025713 -21.84765625 46.6015625 C-22.61078125 47.3853125 -23.37390625 48.1690625 -24.16015625 48.9765625 C-28.15242329 51.39049141 -32.21424475 52.25100834 -36.84765625 52.6015625 C-40.20375234 51.76253848 -41.41941307 51.02980568 -43.84765625 48.6015625 C-44.25113745 44.52550581 -44.17650155 40.4417874 -44.16333008 36.34741211 C-44.16022719 34.33506855 -44.18428881 32.32274129 -44.20898438 30.31054688 C-44.21519352 17.76186541 -42.8817261 5.71709839 -34.84765625 -4.3984375 C-23.57926026 -14.85996069 -10.22759999 -7.91897402 0 0 Z M-13.84765625 145.6015625 C-12.84765625 147.6015625 -12.84765625 147.6015625 -12.84765625 147.6015625 Z M73.15234375 197.6015625 C74.15234375 199.6015625 74.15234375 199.6015625 74.15234375 199.6015625 Z " fill="#1D6BA2" transform="translate(46.84765625,250.3984375)"/>
<path d="M0 0 C3.79022571 2.5842448 6.69936328 5.45045372 8.5625 9.75 C9.19173165 16.88129205 9.39178065 20.08011878 4.75 25.875 C2.27233106 27.89266638 -0.36922028 29.59794773 -3.0625 31.3125 C-8.75170505 35.06237806 -13.69506191 38.75069465 -18.25 43.875 C-15.21034609 42.42125248 -12.40814994 40.73837025 -9.5625 38.9375 C0.32980491 33.07380042 10.28835156 31.05440543 21.75 32.875 C31.32076307 35.5605769 38.9568817 41.86773786 45.75 48.875 C46.43449219 49.56207031 47.11898437 50.24914063 47.82421875 50.95703125 C71.18455544 75.69420507 83.79735074 112.14808924 96.6875 143.0625 C97.05266724 143.93518524 97.41783447 144.80787048 97.79406738 145.70700073 C106.58846026 166.77291062 112.17895326 184.8783392 111.75 207.875 C115.34374335 200.29688901 115.41929124 192.61003278 115.75 184.375 C116.33293816 169.8591621 117.98935606 161.31961915 128.75 150.875 C134.19917585 146.03370034 139.87804947 141.5231697 145.6875 137.125 C148.29769334 135.13090635 150.46133697 133.20015331 152.5 130.625 C154.86538432 127.73397473 156.26942359 126.21976816 159.75 124.875 C164.9705172 124.36397049 168.79580381 125.45495997 172.875 128.75 C182.42944331 138.11524642 191.14076451 154.27954107 192 167.8125 C191.95075922 171.58997158 191.14329254 173.86122421 188.75 176.875 C182.20732951 181.23678032 173.34467771 180.36127156 165.75 179.875 C161.8869088 179.05044104 159.37173247 177.41492557 156.375 174.8125 C153.46301839 169.54853325 153.75 163.77817456 153.75 157.875 C151.53886822 163.90462757 150.0861815 169.70093745 149.25 176.0625 C149.1274585 176.94180176 149.00491699 177.82110352 148.87866211 178.72705078 C147.96158685 185.57087856 147.30601926 192.42952112 146.67626953 199.30493164 C143.03673553 238.77555572 143.03673553 238.77555572 127.75 251.875 C117.21837172 259.11637325 106.17245934 260.56276838 93.75 261.875 C98.90309567 264.33898899 103.60262718 266.33743133 109.3125 267.125 C110.34503906 267.27453125 111.37757813 267.4240625 112.44140625 267.578125 C113.58416016 267.72507812 113.58416016 267.72507812 114.75 267.875 C108.35910034 289.43324217 96.60068795 307.72450734 76.55834961 318.9855957 C60.98685608 327.24348891 39.09392487 335.96842962 21.421875 331.25390625 C16.58762507 328.88932748 14.16357119 324.45744852 11.75 319.875 C11.68683594 320.7928125 11.62367188 321.710625 11.55859375 322.65625 C11.43613281 323.8834375 11.31367188 325.110625 11.1875 326.375 C11.08308594 327.5815625 10.97867188 328.788125 10.87109375 330.03125 C9.79074897 335.15611489 6.65399108 338.54072907 2.75 341.875 C-0.8023417 344.11131785 -4.4969927 345.88441406 -8.3125 347.625 C-10.24259745 348.53282732 -12.17103367 349.44419631 -14.09765625 350.359375 C-14.99500488 350.78412109 -15.89235352 351.20886719 -16.81689453 351.64648438 C-19.82483661 353.16524461 -22.48352997 354.95875555 -25.25 356.875 C-28.9669732 358.11399107 -32.39438861 358.55893886 -36.25 357.875 C-39.46954645 355.34046343 -40.95432435 353.76202695 -42.25 349.875 C-43.42030882 338.22970485 -43.42784639 326.43715851 -43.53610229 314.7411499 C-43.5534081 313.148976 -43.57751932 311.5568583 -43.60916138 309.96490479 C-43.77513068 301.12852651 -43.34465151 292.75938017 -41.48046875 284.09765625 C-41.32475906 283.36067001 -41.16904938 282.62368378 -41.00862122 281.86436462 C-39.67288207 276.26116761 -37.37519018 272.00019018 -33.25 267.875 C-31.32983398 267.4519043 -31.32983398 267.4519043 -28.99609375 267.19921875 C-28.14499023 267.09585205 -27.29388672 266.99248535 -26.41699219 266.88598633 C-25.51625977 266.77923584 -24.61552734 266.67248535 -23.6875 266.5625 C-16.18803939 265.57877857 -10.52467294 264.33967113 -4.25 259.875 C-5.4565625 259.86082031 -6.663125 259.84664063 -7.90625 259.83203125 C-23.9067884 259.44625478 -23.9067884 259.44625478 -28.77734375 255.57421875 C-38.17116825 244.73519048 -37.6285019 229.89964292 -37.5625 216.375 C-37.56100952 215.62044525 -37.55951904 214.8658905 -37.5579834 214.08847046 C-37.51656892 202.41901492 -36.6597288 191.30031474 -34.25 179.875 C-31.42816644 166.18631214 -29.40797967 154.70804153 -32.25 140.875 C-32.6616649 138.703656 -33.07025438 136.53172775 -33.4765625 134.359375 C-34.33620929 129.79561063 -35.22170939 125.23812732 -36.12890625 120.68359375 C-38.3833492 109.161291 -41.38780618 93.70934614 -35.25 82.875 C-32.52013263 79.66339133 -30.11559312 78.6308863 -26.0625 77.9375 C-17.03090925 77.3383895 -9.03572862 81.13519195 -2.25 86.875 C2.95204221 92.05402433 6.21795304 98.42628548 9.6875 104.8125 C16.91095425 117.99486772 23.97239922 125.20131583 36.86132812 132.75390625 C55.96817672 144.09551028 65.16473097 164.24044012 70.5625 185.3125 C73.86638788 201.35995542 74.64701166 220.71717131 65.3671875 235.00390625 C61.88043288 239.37604097 58.17853962 242.31043773 52.47265625 243.25 C48.98783989 243.59739602 45.5004081 243.8228981 42.00585938 244.046875 C36.13334753 244.50504547 32.3446781 245.26836486 28.0546875 249.578125 C26.24843395 252.75799651 25.61844252 256.0847586 24.875 259.625 C21.99959648 272.00857142 16.50239838 278.06042152 6.0234375 285.04077148 C-4.2371924 291.91779469 -11.04771317 299.0560683 -15.25 310.875 C-15.25 311.535 -15.25 312.195 -15.25 312.875 C-14.84910156 312.22273438 -14.44820313 311.57046875 -14.03515625 310.8984375 C-8.82691208 302.89120497 -3.50700556 299.0273533 4.89453125 294.7578125 C5.64041504 294.3750415 6.38629883 293.99227051 7.15478516 293.59790039 C8.63946302 292.84317591 10.1324011 292.10441393 11.63427734 291.38452148 C18.41631558 287.97949311 22.65146951 283.16088422 26.4375 276.625 C27.96337399 274.00322339 29.43321365 271.8591196 31.75 269.875 C34.4375 269.25 34.4375 269.25 37.75 269.875 C48.47800402 276.73277472 56.77509705 288.95029116 60.75 300.875 C59.53840376 290.21295311 57.97289861 281.32480558 49.75 273.875 C48.739375 273.070625 47.72875 272.26625 46.6875 271.4375 C42.05023473 267.39222604 38.30438392 262.75779636 37.125 256.625 C37.91535303 253.14744665 39.24161399 251.38338601 41.75 248.875 C45.95125611 247.4745813 50.285076 247.24931174 54.68164062 246.88867188 C61.85863303 246.1300188 66.79940871 242.65443676 71.30078125 237.1015625 C80.46330836 223.02436451 81.03233232 205.8336858 77.75 189.875 C74.96480486 178.3962897 69.46074413 167.93488245 64.21655273 157.42724609 C60.36766274 149.58085569 57.42558722 141.71373148 55.24438477 133.24707031 C54.58529781 130.93372786 53.97089175 128.94787462 52.75 126.875 C49.47480035 125.24864662 49.47480035 125.24864662 45.75 124.875 C31.5043186 121.21826183 23.50463644 115.49529068 15.75 102.875 C8.87852983 89.72883747 8.63777955 80.12090656 12.75 65.875 C12.37488281 66.40609375 11.99976563 66.9371875 11.61328125 67.484375 C5.62180411 75.75472632 5.62180411 75.75472632 1.75 77.875 C-4.17835626 77.49849514 -9.26860093 76.05701232 -14.8125 74 C-15.52857422 73.74347656 -16.24464844 73.48695312 -16.98242188 73.22265625 C-30.96143568 68.16019265 -30.96143568 68.16019265 -34.25 62.875 C-40.37958327 49.43706744 -41.08149138 33.07168386 -37.25 18.875 C-34.13125225 11.32710628 -27.73821903 5.17731409 -20.5390625 1.484375 C-13.53161704 -1.30290022 -7.22338626 -2.50040294 0 0 Z M-1.25 147.875 C0.13294862 152.41602531 1.9796284 156.4276699 4.1875 160.625 C10.6237484 173.24880096 14.18286468 186.90335321 9.75 200.875 C7.625 203.9375 7.625 203.9375 5.75 205.875 C5.75 206.535 5.75 207.195 5.75 207.875 C5.20472656 208.11347656 4.65945313 208.35195312 4.09765625 208.59765625 C1.15886317 210.19663352 -1.23704897 212.17855486 -3.8125 214.3125 C-4.76253906 215.09496094 -5.71257812 215.87742187 -6.69140625 216.68359375 C-8.64082857 218.35325165 -10.47984569 220.02140407 -12.25 221.875 C-11.92 222.535 -11.59 223.195 -11.25 223.875 C-10.57453125 223.52566406 -9.8990625 223.17632812 -9.203125 222.81640625 C-8.31109375 222.36136719 -7.4190625 221.90632813 -6.5 221.4375 C-5.61828125 220.98503906 -4.7365625 220.53257812 -3.828125 220.06640625 C7.91672472 214.63886206 22.60903609 218.37844928 34.75 220.875 C32.45579165 218.56894548 30.16408401 216.26667866 27.80078125 214.03125 C27.22714844 213.4846875 26.65351563 212.938125 26.0625 212.375 C25.48113281 211.8284375 24.89976562 211.281875 24.30078125 210.71875 C21.06344278 206.86982365 20.50605888 202.99907859 20.4765625 198.0859375 C20.4559375 196.97863281 20.4353125 195.87132812 20.4140625 194.73046875 C20.38828469 192.43366607 20.36989928 190.13676698 20.359375 187.83984375 C20.01945334 171.5047196 13.2197911 160.93726121 1.82421875 149.74609375 C0.09182057 147.76336431 0.09182057 147.76336431 -1.25 147.875 Z M154.75 152.875 C155.75 154.875 155.75 154.875 155.75 154.875 Z M109.75 209.875 C110.75 211.875 110.75 211.875 110.75 211.875 Z M-17.25 313.875 C-16.25 315.875 -16.25 315.875 -16.25 315.875 Z " fill="#F0801E" transform="translate(306.25,12.125)"/>
<path d="M0 0 C10.25573368 9.35340518 14.67117742 25.44761276 15.515625 38.9921875 C15.77156644 48.57702534 15.77156644 48.57702534 13.1328125 52.53515625 C8.30048178 53.4227272 5.45387328 52.41419352 1.4453125 49.84765625 C-3.1695193 46.51210606 -6.71705553 42.86931344 -8.8671875 37.53515625 C-9.46200362 30.35362636 -9.44956203 23.31388939 -6.8671875 16.53515625 C-7.34929687 16.95667969 -7.83140625 17.37820312 -8.328125 17.8125 C-8.95976562 18.36035156 -9.59140625 18.90820312 -10.2421875 19.47265625 C-10.86867188 20.01792969 -11.49515625 20.56320313 -12.140625 21.125 C-15.03398167 23.48812615 -16.82914284 23.64998546 -20.4921875 23.59765625 C-21.71808594 23.58412109 -21.71808594 23.58412109 -22.96875 23.5703125 C-23.59523438 23.55871094 -24.22171875 23.54710937 -24.8671875 23.53515625 C-24.35929688 23.93605469 -23.85140625 24.33695313 -23.328125 24.75 C-15.58921175 31.14112499 -9.71505335 38.31856539 -8.65234375 48.6171875 C-8.25396198 57.71622722 -11.31043627 64.86901845 -15.8671875 72.59765625 C-20.26943432 80.07939511 -22.57669808 86.42433395 -23.87817383 94.96679688 C-27.058681 115.7691483 -37.39206405 133.89862109 -54.50390625 146.47265625 C-61.50854716 150.87117488 -70.383362 156.06224484 -78.8671875 154.53515625 C-81.82903321 151.72919716 -83.01448084 149.44757505 -83.8671875 145.53515625 C-84.01752441 146.53144043 -84.01752441 146.53144043 -84.17089844 147.54785156 C-90.52855898 189.11051673 -90.52855898 189.11051673 -106.8671875 201.53515625 C-115.83563907 207.13111189 -125.62761595 210.99199469 -135.8671875 213.53515625 C-136.71925781 213.75945312 -137.57132812 213.98375 -138.44921875 214.21484375 C-154.53772057 217.82301774 -172.02880384 216.60617751 -186.38671875 208.27734375 C-191.93819339 204.37819778 -195.490659 199.33354001 -198.8671875 193.53515625 C-198.44566406 194.69273437 -198.02414062 195.8503125 -197.58984375 197.04296875 C-197.0361912 198.58193517 -196.48282067 200.12100308 -195.9296875 201.66015625 C-195.65189453 202.42070312 -195.37410156 203.18125 -195.08789062 203.96484375 C-191.34212932 214.43492354 -191.34212932 214.43492354 -192.5546875 219.28515625 C-194.13096583 221.98734767 -194.90942268 222.57588117 -197.8671875 223.53515625 C-200.19214027 223.92264838 -202.52570018 224.26498464 -204.8671875 224.53515625 C-191.30222086 228.73050676 -176.38402244 224.63410744 -163.0637207 221.52856445 C-151.86433205 218.92224208 -140.6254433 216.73534657 -129.3046875 214.72265625 C-128.49092651 214.57617645 -127.67716553 214.42969666 -126.83874512 214.27877808 C-124.47267234 213.85336315 -122.10581336 213.43283834 -119.73828125 213.015625 C-118.61016525 212.81645729 -118.61016525 212.81645729 -117.45925903 212.61326599 C-113.84416809 211.99072864 -110.24042344 211.43961827 -106.59423828 211.03369141 C-105.91764664 210.95637283 -105.24105499 210.87905426 -104.54396057 210.7993927 C-102.72635931 210.60084959 -100.90630759 210.42510355 -99.08618164 210.2512207 C-94.69462448 209.27431989 -91.32037806 207.42060806 -88.54248047 203.81640625 C-85.3983731 196.88607171 -83.23211426 189.65804031 -81.04296875 182.37890625 C-77.88188383 172.40448689 -73.0795241 164.83294141 -63.8671875 159.53515625 C-61.22879078 158.30069681 -58.5518636 157.16478582 -55.8671875 156.03515625 C-49.8825777 153.51614849 -44.64110058 151.04867407 -39.8671875 146.53515625 C-39.2175 145.93703125 -38.5678125 145.33890625 -37.8984375 144.72265625 C-32.27396555 139.01165397 -29.15918692 132.50232177 -25.75 125.3671875 C-22.78791689 119.21551643 -19.6648402 113.36655077 -13.8671875 109.53515625 C-5.68029193 106.80619106 4.27807151 108.30152565 12.1328125 111.53515625 C17.40687136 115.39123797 19.15335327 120.29791517 20.1328125 126.53515625 C21.22562815 134.4762833 21.35107515 142.33794195 21.3828125 150.34765625 C21.41375 152.2822168 21.41375 152.2822168 21.4453125 154.25585938 C21.49319584 166.0890297 20.20436814 178.97131232 11.8203125 188.03515625 C8.26920195 190.01717144 6.13700051 190.19038702 2.1328125 189.53515625 C-2.3127812 185.04936731 -2.62009058 181.48018506 -2.90234375 175.39453125 C-2.7892324 162.97741856 -0.76650378 151.30881996 3.1328125 139.53515625 C0.83437274 141.83359601 -0.57228258 145.10071797 -2.19921875 147.89453125 C-9.17359684 158.93593544 -20.67759751 165.36500999 -31.8671875 171.53515625 C-31.10535156 171.34179688 -30.34351563 171.1484375 -29.55859375 170.94921875 C-27.41478297 170.40858232 -25.26881516 169.87644837 -23.12109375 169.3515625 C-21.14013314 168.85453877 -19.1658512 168.3281539 -17.20703125 167.75 C-11.61184202 166.19007245 -11.61184202 166.19007245 -8.3046875 167.72265625 C-5.7280064 172.76398885 -5.96938797 178.27097122 -7.45703125 183.6796875 C-10.21217273 189.91367123 -15.21607223 194.6762592 -19.8671875 199.53515625 C-20.41117188 200.15390625 -20.95515625 200.77265625 -21.515625 201.41015625 C-26.97321491 207.3941127 -33.95919007 211.43845912 -40.8671875 215.53515625 C-42.15496094 216.29892578 -42.15496094 216.29892578 -43.46875 217.078125 C-53.66447893 222.61928203 -65.50756518 224.74028869 -76.8671875 226.53515625 C-59.08680559 228.47440947 -42.52453047 226.04150186 -27.89794922 215.05615234 C-24.81853391 212.56240696 -21.86684862 209.95370219 -18.953125 207.26953125 C-11.99930376 200.94151016 -6.84066225 199.21792657 2.3671875 199.31640625 C6.31435308 199.62861144 8.72753018 200.50647742 12.1328125 202.53515625 C15.10267932 207.10718807 14.21030701 211.41529673 13.1328125 216.53515625 C7.95859052 232.65897661 -1.77609567 246.59566617 -16.8671875 254.53515625 C-19.70421135 255.7163296 -22.53549708 256.76004052 -25.45703125 257.7109375 C-28.80729762 258.82752673 -28.80729762 258.82752673 -31.8671875 260.53515625 C-32.56713734 262.64476615 -32.56713734 262.64476615 -32.7421875 265.09765625 C-33.66354092 270.9584877 -36.30070992 274.8920062 -39.8671875 279.53515625 C-34.57652204 275.5142505 -31.551985 271.8197763 -28.51953125 265.90234375 C-24.62509384 260.32307881 -18.72818458 258.57814637 -12.4921875 256.78515625 C-11.75613281 256.56472656 -11.02007812 256.34429687 -10.26171875 256.1171875 C-8.46619962 255.58086361 -6.66704651 255.05673059 -4.8671875 254.53515625 C-4.92372024 267.31155486 -11.13460847 276.86942927 -19.890625 285.71875 C-31.17040922 296.61810928 -47.23589155 307.71528506 -63.4296875 307.91015625 C-68.74114183 307.81269837 -71.92885963 307.37250136 -75.8671875 303.53515625 C-79.93002318 298.15464414 -81.41214474 294.29262605 -80.8671875 287.53515625 C-78.12638701 278.81157982 -72.54333492 272.31458221 -66.4296875 265.72265625 C-61.8536756 260.73557888 -58.30475508 255.3491773 -54.8671875 249.53515625 C-57.57673217 250.83024698 -60.01505832 252.28082972 -62.4921875 253.97265625 C-70.78392059 259.13594411 -79.26137828 260.06000848 -88.8671875 259.97265625 C-89.98206543 259.97015869 -91.09694336 259.96766113 -92.24560547 259.96508789 C-101.73157025 259.81572875 -110.91867833 258.59864904 -120.23828125 256.87084961 C-130.57064064 254.95811889 -130.57064064 254.95811889 -140.0546875 258.72265625 C-142.07962841 260.74759716 -143.62916452 262.52755223 -145.3046875 264.78515625 C-147.8671875 267.53515625 -147.8671875 267.53515625 -151.3671875 268.72265625 C-154.8671875 268.53515625 -154.8671875 268.53515625 -157.28125 266.52734375 C-160.79433177 262.4623579 -163.32438108 258.00577293 -165.94140625 253.33007812 C-168.91422749 248.30459461 -171.57629017 246.03760769 -176.8671875 243.53515625 C-176.40828125 244.12941406 -175.949375 244.72367188 -175.4765625 245.3359375 C-167.71082678 255.82620655 -164.35294457 265.35968166 -165.8671875 278.53515625 C-168.39943326 288.54426967 -176.33716034 296.19793255 -184.8671875 301.53515625 C-193.70383286 306.32364144 -202.05314545 307.70703312 -211.9921875 307.84765625 C-212.756521 307.86538086 -213.52085449 307.88310547 -214.30834961 307.90136719 C-220.16856145 307.89375075 -225.01746931 306.98872527 -229.609375 303.03515625 C-234.31547235 296.80363424 -234.04996101 292.00195489 -234.0546875 284.47265625 C-234.06693359 283.47298828 -234.07917969 282.47332031 -234.09179688 281.44335938 C-234.12357921 265.13902319 -234.12357921 265.13902319 -229.6796875 258.91015625 C-226.8671875 256.53515625 -226.8671875 256.53515625 -223.625 256.19921875 C-219.44418372 256.57297156 -216.67876479 257.67994275 -212.9296875 259.53515625 C-211.78628906 260.09203125 -210.64289063 260.64890625 -209.46484375 261.22265625 C-208.60761719 261.65578125 -207.75039063 262.08890625 -206.8671875 262.53515625 C-208.24314153 256.93823044 -212.18031333 254.63187122 -216.5546875 251.34765625 C-222.87042854 246.39608169 -228.11613594 241.77015662 -231.8671875 234.53515625 C-232.29386719 233.72175781 -232.72054688 232.90835938 -233.16015625 232.0703125 C-237.51150447 222.19438565 -237.67943342 210.08126903 -233.8046875 200.03515625 C-231.16203438 194.60920461 -227.89473518 190.01293792 -223.8671875 185.53515625 C-223.23296875 184.81972656 -222.59875 184.10429687 -221.9453125 183.3671875 C-209.05425431 169.676496 -188.25282663 153.92568606 -168.8671875 153.09765625 C-160.24914038 153.36013484 -154.13605336 156.60617624 -147.86328125 162.38671875 C-144.09684478 166.44061319 -140.97354477 170.96649781 -137.8671875 175.53515625 C-138.21652344 174.41238281 -138.56585938 173.28960937 -138.92578125 172.1328125 C-143.74699568 156.3860899 -143.74699568 156.3860899 -143.8671875 149.53515625 C-141.20586775 146.8738365 -138.26774519 146.39515305 -134.7421875 145.41015625 C-121.30974191 141.39600262 -109.65517185 135.78333516 -99.8671875 125.53515625 C-99.18527344 124.86097656 -98.50335938 124.18679688 -97.80078125 123.4921875 C-86.17591368 111.3668364 -78.30634606 94.25924243 -71.3671875 79.09765625 C-68.22661594 72.72987668 -63.23675691 67.54966772 -57.9765625 62.84375 C-48.73366628 54.5376338 -44.1056472 41.95553272 -43.375 29.7890625 C-43.17190751 25.92831406 -42.99096319 22.06789949 -42.83203125 18.20507812 C-42.03411275 3.59413661 -42.03411275 3.59413661 -36.25561523 -2.03466797 C-25.72893837 -10.7528112 -10.14173628 -7.95638306 0 0 Z " fill="#ED7320" transform="translate(502.8671875,204.46484375)"/>
<path d="M0 0 C0.84079102 0.14832275 1.68158203 0.29664551 2.54785156 0.44946289 C8.13590196 1.59931604 11.37360985 3.2064581 15.375 7.3125 C17.15943398 10.28825759 17.74883513 12.87561236 18.15625 16.3046875 C18.27613281 17.25730469 18.39601563 18.20992188 18.51953125 19.19140625 C18.69548828 20.67447266 18.69548828 20.67447266 18.875 22.1875 C19.58930526 28.16097583 20.36722025 33.61679008 22.375 39.3125 C23.68655435 48.92136137 20.99348781 56.57643658 17.375 65.3125 C17.705 65.6425 18.035 65.9725 18.375 66.3125 C18.931875 65.66023437 19.48875 65.00796875 20.0625 64.3359375 C27.29371169 56.05424573 33.62358982 48.99815179 45.1171875 48.09765625 C52.57611163 47.85034444 52.57611163 47.85034444 55.6640625 49.63671875 C57.375 51.3125 57.375 51.3125 58.0625 54.4375 C57.06994982 60.03187376 54.11828119 63.16815296 50.375 67.3125 C49.61703125 68.17488281 49.61703125 68.17488281 48.84375 69.0546875 C44.61333775 73.56568831 39.73525385 77.27590069 34.8503418 81.04101562 C31.35413204 83.73702188 27.95480583 86.50185882 24.62084961 89.39575195 C18.33827089 94.82110269 11.71455388 100.28677622 3.125 100.9375 C-1.69287463 100.1345209 -3.25123289 98.76855411 -6.625 95.3125 C-7.99314547 92.57620906 -7.72048854 90.36210747 -7.6875 87.3125 C-7.67847656 86.24 -7.66945313 85.1675 -7.66015625 84.0625 C-7.64855469 83.155 -7.63695312 82.2475 -7.625 81.3125 C-7.625 80.6525 -7.625 79.9925 -7.625 79.3125 C-8.01171875 80.04855469 -8.3984375 80.78460937 -8.796875 81.54296875 C-15.98611111 95.01388889 -15.98611111 95.01388889 -23.625 98.3125 C-22.70976562 98.49425781 -21.79453125 98.67601562 -20.8515625 98.86328125 C-19.66304688 99.11464844 -18.47453125 99.36601563 -17.25 99.625 C-16.06664062 99.86863281 -14.88328125 100.11226562 -13.6640625 100.36328125 C-10.625 101.3125 -10.625 101.3125 -8.625 104.3125 C-8.77005816 107.40707398 -9.08548855 108.81375164 -11.3828125 110.9375 C-33.72197805 123.91338494 -62.13097221 126.47503785 -87.0078125 120.5 C-100.03213834 116.80515579 -113.08616915 110.05795119 -120.625 98.3125 C-121.16061062 94.10413084 -121.09274118 92.05443428 -118.8125 88.4375 C-114.4430567 84.19289793 -109.02235506 84.97786611 -103.2578125 85.04296875 C-94.20458959 85.71465948 -87.93705009 90.19858665 -80.875 95.60546875 C-74.76020928 100.24464157 -66.73460013 98.53318556 -59.4909668 97.5949707 C-56.53248244 97.18800763 -53.57778941 96.75880555 -50.625 96.3125 C-51.79675781 96.28671875 -52.96851563 96.2609375 -54.17578125 96.234375 C-75.99896428 95.53939878 -75.99896428 95.53939878 -82.8125 88.5 C-85.01740214 84.62241348 -85.31955325 82.71133726 -84.625 78.3125 C-82.64958222 73.88756417 -80.41967261 70.97238914 -76.97265625 67.59375 C-76.34496338 66.97564453 -75.71727051 66.35753906 -75.07055664 65.72070312 C-74.59352295 65.25599609 -74.11648926 64.79128906 -73.625 64.3125 C-74.12201416 64.55371582 -74.61902832 64.79493164 -75.13110352 65.04345703 C-109.49396658 81.66567693 -109.49396658 81.66567693 -123.625 80.3125 C-127.3817189 78.43414055 -128.26710021 77.09337226 -130 73.3125 C-131.43387524 66.94278501 -131.0827314 59.71070327 -127.6875 54.125 C-124.48349475 51.30935902 -122.77796271 51.20969394 -118.6015625 51.3203125 C-100.94538334 51.65223242 -86.08928699 51.0554859 -72.625 38.3125 C-70.86923518 36.16987174 -69.20333721 34.036836 -67.5625 31.8125 C-59.93993258 21.85982686 -51.4760409 13.06867368 -41.3125 5.6875 C-40.48721802 5.08470215 -40.48721802 5.08470215 -39.64526367 4.46972656 C-27.37478584 -4.04680296 -14.00893673 -2.60640361 0 0 Z M-15.23828125 40.8046875 C-19.37049453 43.41521831 -22.81403925 44.56784921 -27.70703125 44.5078125 C-29.10405273 44.49814453 -29.10405273 44.49814453 -30.52929688 44.48828125 C-31.48900391 44.47152344 -32.44871094 44.45476563 -33.4375 44.4375 C-34.41654297 44.42847656 -35.39558594 44.41945313 -36.40429688 44.41015625 C-38.81145061 44.38667182 -41.21809743 44.3538284 -43.625 44.3125 C-40.41438893 46.45290738 -37.09834308 48.20741553 -33.68359375 49.99609375 C-31.625 51.3125 -31.625 51.3125 -29.625 54.3125 C-29.82354843 59.67330748 -30.84532032 62.53282032 -34.625 66.3125 C-36.9486256 68.18035316 -39.30057151 69.99119518 -41.69921875 71.76171875 C-43.73097061 73.17765475 -43.73097061 73.17765475 -44.625 75.3125 C-26.73986806 68.62120938 -14.91558511 52.82864602 -6.625 36.3125 C-10.0575072 36.3125 -12.50080356 38.88055208 -15.23828125 40.8046875 Z M-5.625 74.3125 C-4.625 76.3125 -4.625 76.3125 -4.625 76.3125 Z " fill="#EA6A20" transform="translate(399.625,469.6875)"/>
<path d="M0 0 C2.39251238 0.92578249 4.54882507 1.95372756 6.76171875 3.24609375 C7.68984375 3.76171875 8.61796875 4.27734375 9.57421875 4.80859375 C14.56239583 10.36684821 16.66331979 17.96016145 19.19921875 24.87109375 C24.22571442 37.97091479 32.92765951 45.76221144 43.88671875 54.24609375 C61.3930157 68.19038391 71.08228689 89.30607488 77.76171875 110.24609375 C77.41158823 101.79004777 75.01227202 95.29603457 71.55664062 87.65820312 C69.18575567 82.1490039 67.78921025 77.27383993 68.76171875 71.24609375 C70.76672755 67.44349085 72.18858137 65.62818534 75.76171875 63.24609375 C82.12022488 62.1557362 87.18366802 63.2293581 92.6015625 66.640625 C103.69629997 74.88644254 111.53809365 87.52674645 113.76171875 101.24609375 C114.69621205 111.80127219 112.95001611 121.35169872 106.57421875 129.99609375 C99.22904088 138.60177884 90.33006371 146.77852478 78.796875 148.75390625 C73.01879037 148.99168751 68.176898 148.20737607 63.76171875 144.24609375 C52.43163402 132.45543647 46.40786802 117.64949862 40.97729492 102.55151367 C37.04569107 91.69626414 32.49996998 81.70128277 24.38671875 73.24609375 C21.17095729 69.80648471 18.14165623 66.29787449 15.19921875 62.62109375 C6.64757156 52.14459126 -2.96854131 44.70083612 -14.1875 37.30078125 C-21.50169693 32.42464996 -25.78299597 27.92993824 -28.23828125 19.24609375 C-29.45200277 8.71865655 -29.45200277 8.71865655 -27.1875 4.10546875 C-21.13758647 -3.24722852 -8.62863383 -2.00883755 0 0 Z " fill="#F3871E" transform="translate(349.23828125,5.75390625)"/>
<path d="M0 0 C5.27337062 3.98666819 8.68361544 8.47684439 10 15 C10.88461128 21.93314088 9.95539812 27.20307227 6 33 C1.90700197 38.00255315 -3.02122949 41.37377062 -9.45703125 42.38671875 C-15.44897923 42.65364116 -20.15324774 41.59241679 -25 38 C-30.80198449 32.6214345 -33.91854415 27.68239333 -34.375 19.6875 C-34.1891116 13.54285579 -32.27660473 8.54301592 -28.1640625 3.94921875 C-19.99526755 -3.60926394 -9.9099519 -5.58921287 0 0 Z " fill="#3F48CC" transform="translate(398,276)"/>
<path d="M0 0 C5.1375817 2.94318952 8.58664718 7.00503501 11.125 12.3125 C12.53862145 19.38060725 12.32349805 25.00520351 8.75 31.4375 C5.2269809 36.58324304 1.90315748 39.69410538 -4.25 41.4375 C-11.08264555 42.33211808 -16.60410393 41.50809025 -22.25 37.4375 C-27.18243269 32.50506731 -30.29152844 27.16315803 -30.75 20.125 C-30.51142741 13.49040977 -27.45394396 7.64144396 -22.8125 3 C-21.966875 2.484375 -21.12125 1.96875 -20.25 1.4375 C-19.363125 0.86 -18.47625 0.2825 -17.5625 -0.3125 C-11.66507158 -2.53794469 -5.80871703 -2.58165202 0 0 Z " fill="#880015" transform="translate(137.25,279.5625)"/>
<path d="M0 0 C1.96680159 1.01214635 3.88285173 2.08281322 5.79492188 3.19482422 C6.48376465 3.58895508 7.17260742 3.98308594 7.88232422 4.38916016 C14.33033617 8.15610159 20.20895327 12.47089017 26.04492188 17.13232422 C26.9653125 17.80521484 26.9653125 17.80521484 27.90429688 18.49169922 C32.86293727 22.22345952 37.2757724 27.43807596 38.56054688 33.60888672 C38.75353478 37.84083574 38.75353478 37.84083574 38.04492188 40.13232422 C35.72169381 42.61789835 34.30106089 43.0997885 30.90820312 43.53076172 C19.26164949 43.45388678 11.91209108 41.70536603 3.04492188 34.13232422 C2.15417969 33.39755859 1.2634375 32.66279297 0.34570312 31.90576172 C-7.30655064 25.32879055 -14.59927377 18.15380477 -16.08007812 7.75732422 C-16.21975068 3.76395881 -15.71711654 1.19029532 -12.95507812 -1.86767578 C-8.37436247 -3.394581 -4.29137084 -1.90453696 0 0 Z " fill="#F3891E" transform="translate(388.955078125,20.86767578125)"/>
<path d="M0 0 C3.50219945 1.68762703 4.82544575 3.36911591 6.49609375 6.84375 C8.2966338 12.02412731 8.27303069 17.07385825 8.20703125 22.5078125 C8.21863281 23.47074219 8.23023438 24.43367188 8.2421875 25.42578125 C8.21991125 30.82405861 7.88516975 34.73608463 4.83203125 39.3828125 C0.9838356 42.99049592 -3.28294113 42.88361521 -8.31640625 42.734375 C-15.29661984 41.87380072 -20.69791166 38.83069458 -25.16796875 33.3828125 C-28.03455251 24.78306122 -25.97928216 16.33846672 -22.16796875 8.3828125 C-17.06411837 -0.58515174 -9.96285895 -2.83627336 0 0 Z " fill="#EF7A1F" transform="translate(517.16796875,265.6171875)"/>
<path d="M0 0 C3.51773581 0.94942351 4.83040207 1.76455817 6.9921875 4.765625 C7.61351562 5.91546875 8.23484375 7.0653125 8.875 8.25 C9.21015625 8.8682666 9.5453125 9.4865332 9.890625 10.12353516 C10.58915948 11.42179825 11.28013881 12.72415209 11.96386719 14.03027344 C12.97551748 15.95345783 14.01977855 17.85565635 15.0703125 19.7578125 C21.29424401 31.26993113 21.29424401 31.26993113 20 38 C15.47694714 41.01536857 11.30278722 40.54387561 6 40 C-1.68396027 38.19200935 -8.75317475 34.97203603 -13.18359375 28.1875 C-14.62989079 24.31225435 -14.44742115 21.16092231 -12.96875 17.32421875 C-9.33337923 10.79795474 -5.20930046 5.35473778 0 0 Z " fill="#165188" transform="translate(133,542)"/>
<path d="M0 0 C5.27337062 3.98666819 8.68361544 8.47684439 10 15 C10.88461128 21.93314088 9.95539812 27.20307227 6 33 C1.90700197 38.00255315 -3.02122949 41.37377062 -9.45703125 42.38671875 C-15.44897923 42.65364116 -20.15324774 41.59241679 -25 38 C-30.80198449 32.6214345 -33.91854415 27.68239333 -34.375 19.6875 C-34.1891116 13.54285579 -32.27660473 8.54301592 -28.1640625 3.94921875 C-19.99526755 -3.60926394 -9.9099519 -5.58921287 0 0 Z M-24.75 7.875 C-28.45121541 13.01557696 -29.54970234 16.62345282 -29 23 C-27.02558221 29.02717009 -24.26693821 33.14579183 -18.6875 36.3125 C-12.07738927 38.00345856 -6.93219677 37.35784723 -1 34 C2.87408524 30.42623144 4.71043779 27.06267726 5.203125 21.8515625 C5.30989039 16.78020648 4.96566436 13.30499665 2 9 C-2.34481535 4.62437036 -5.4647637 2.166245 -11.8125 1.75 C-17.50572442 1.85427151 -20.8141776 3.76027658 -24.75 7.875 Z " fill="#000000" transform="translate(398,276)"/>
<path d="M0 0 C5.1375817 2.94318952 8.58664718 7.00503501 11.125 12.3125 C12.53862145 19.38060725 12.32349805 25.00520351 8.75 31.4375 C5.2269809 36.58324304 1.90315748 39.69410538 -4.25 41.4375 C-11.08264555 42.33211808 -16.60410393 41.50809025 -22.25 37.4375 C-27.18243269 32.50506731 -30.29152844 27.16315803 -30.75 20.125 C-30.51142741 13.49040977 -27.45394396 7.64144396 -22.8125 3 C-21.966875 2.484375 -21.12125 1.96875 -20.25 1.4375 C-19.363125 0.86 -18.47625 0.2825 -17.5625 -0.3125 C-11.66507158 -2.53794469 -5.80871703 -2.58165202 0 0 Z M-22.640625 10.3046875 C-25.06511912 14.69268038 -25.97042024 18.39455829 -25.25 23.4375 C-23.39280146 28.71114934 -21.04164753 32.36593107 -16.25 35.4375 C-11.89749493 36.88833502 -7.66886245 37.29092929 -3.3125 35.75390625 C1.97936889 33.00532779 4.85694028 29.11667916 6.75 23.4375 C7.33090396 17.51227962 6.28145409 13.1791715 2.75 8.4375 C-0.76378692 5.21911995 -4.45166231 3.17143077 -9.25 2.8125 C-14.76896808 3.2253362 -19.34560251 5.88047191 -22.640625 10.3046875 Z " fill="#000000" transform="translate(137.25,279.5625)"/>
</svg>
